<svg xmlns="http://www.w3.org/2000/svg" viewBox="0 0 384 384.03"><defs><style>.cls-1{fill:#2a3477;}.cls-2{fill:#25458c;}.cls-3{fill:#e06e72;}.cls-4{fill:#ebeced;}.cls-5,.cls-6,.cls-8,.cls-9{fill:none;stroke-linecap:round;}.cls-5,.cls-6{stroke:#d1c1c0;stroke-width:8px;}.cls-5,.cls-8{stroke-miterlimit:10;}.cls-6,.cls-9{stroke-linejoin:round;}.cls-7{fill:#d2a777;}.cls-8,.cls-9{stroke:#7f7680;stroke-width:7px;}</style></defs><g id="Layer_2" data-name="Layer 2"><g id="Layer_1-2" data-name="Layer 1"><path class="cls-1" d="M384,192c0,106-86,192-192,192-2.9,0-5.79-.06-8.66-.2A191.84,191.84,0,0,1,0,194.68V191.6A184.73,184.73,0,0,1,.93,173c0-.27.06-.53.08-.79C10.91,75.47,92.64,0,192,0,298,0,384,86,384,192Z"/><path class="cls-2" d="M24,285.05a193.39,193.39,0,0,1-8.92-18.31C8.33,250,.07,223.12,0,191.6A180.56,180.56,0,0,1,.93,173c0-.27.06-.53.08-.79,1.79-16.55,4.81-34.33,12.84-52,0,0,47.37-11.81,69.69,63.39C83.54,183.65,112.29,254.05,24,285.05Z"/><path class="cls-2" d="M374,130.78S327.47,141,329.27,177.39c-.28,3.07-.33,6.17-.34,9.24a126.71,126.71,0,0,0,1.61,20.86c.59,3.54,1.46,7,2.39,10.48a28.2,28.2,0,0,0,6,11.82,56.72,56.72,0,0,0,7.05,6.27c2.55,2.06,5,4.2,7.61,6.26,6.27,5,12.66,9.9,19.22,14.54C372.77,256.86,397,205.49,374,130.78Z"/><path class="cls-2" d="M224.83,381.21c-32.83,4.44-35.93,2.22-41.49,2.59a191.68,191.68,0,0,1-30-3.7c-.14-.69-.27-1.38-.38-2.07-1.59-9.78-.45-20.64,8.78-28.75,5.19-4.56,14.41-9.42,23.36-9.53a28.41,28.41,0,0,1,14,3.72,57.35,57.35,0,0,1,10.83,8.28,47.45,47.45,0,0,1,9.63,12.11,44.72,44.72,0,0,1,4.51,12C224.11,376.11,225.11,381.17,224.83,381.21Z"/><circle class="cls-3" cx="194.68" cy="179.44" r="67.02"/><circle class="cls-4" cx="194.68" cy="179.44" r="39.73"/><circle class="cls-3" cx="194.68" cy="179.44" r="18.29"/><path class="cls-5" d="M121.82,265.71c-3.25-2.75-41.1-35.83-40.06-86.27C82.87,125.57,128,66.51,194.68,66.51A112.93,112.93,0,0,1,307.61,179.44c0,74.42-74.8,110.86-107.14,112.78H64.63"/><line class="cls-5" x1="310.61" y1="305.11" x2="328.93" y2="291.37"/><polyline class="cls-6" points="310.61 278.62 328.93 291.37 270.37 292.22"/><path class="cls-7" d="M86.31,109.75c1.23.77,1,2.33,1.23,3.86.48,4.14,1.12,9.55-1.07,13.09s-7,5.72-11.88,7.79c-1.43.61-2.77,1.38-4,.61L48.13,121.17c-2-1.26-2.11-5.09.3-5.83,4.14-1.26,8.08-2.65,9.82-5.45s1.51-7.84.53-11.21c-.69-2.39,3.06-4.12,5.09-2.86Z"/><line class="cls-8" x1="119.58" y1="155.78" x2="138.99" y2="153.19"/><polyline class="cls-9" points="130.85 136.02 138.99 153.19 73.39 117.66"/></g></g></svg>