<svg xmlns="http://www.w3.org/2000/svg" xmlns:xlink="http://www.w3.org/1999/xlink" width="669.338" height="638.96" viewBox="0 0 669.338 638.96">
  <defs>
    <linearGradient id="linear-gradient" y1="0.5" x2="1" y2="0.5" gradientUnits="objectBoundingBox">
      <stop offset="0" stop-color="#fdf53f"/>
      <stop offset="1" stop-color="#d93c65"/>
    </linearGradient>
    <linearGradient id="linear-gradient-3" x1="1.13" y1="1.295" x2="0.236" y2="0.19" gradientUnits="objectBoundingBox">
      <stop offset="0" stop-color="#ff5e97"/>
      <stop offset="1" stop-color="#1d2e79"/>
    </linearGradient>
    <linearGradient id="linear-gradient-4" x1="0.528" y1="-1.486" x2="0.49" y2="1.858" gradientUnits="objectBoundingBox">
      <stop offset="0" stop-color="#cb236d"/>
      <stop offset="1" stop-color="#4c246d"/>
    </linearGradient>
    <linearGradient id="linear-gradient-5" x1="0.817" y1="0.124" x2="0.347" y2="0.682" xlink:href="#linear-gradient"/>
    <linearGradient id="linear-gradient-6" x1="0.308" y1="0.607" x2="1.573" y2="-0.131" xlink:href="#linear-gradient"/>
    <clipPath id="clip-path">
      <path id="SVGID" d="M2160.213,1064.264a1.254,1.254,0,0,0-.159-1.182c-10.368-13.917-218.827-293.953-238.346-338.083-20.018-45.256-36.815-89.852-26.473-115.315,0,0-39.764,33.171-48.258,83.442-5.517,32.654-7.747,86.926,143.986,292.494,87.163,118.087,116.5,160.216,126.289,174.919a4.448,4.448,0,0,0,8.01-1.085Z" transform="translate(-1845.188 -609.684)" fill="url(#linear-gradient)"/>
    </clipPath>
    <linearGradient id="linear-gradient-8" x1="0.27" y1="-0.396" x2="1.021" y2="2.864" gradientUnits="objectBoundingBox">
      <stop offset="0" stop-color="#50e7b7"/>
      <stop offset="0.996" stop-color="#323992"/>
    </linearGradient>
    <linearGradient id="linear-gradient-9" x1="0.78" y1="-0.246" x2="-0.908" y2="2.994" xlink:href="#linear-gradient"/>
    <linearGradient id="linear-gradient-10" x1="-6.726" y1="-1.132" x2="-6.768" y2="0.335" xlink:href="#linear-gradient"/>
    <linearGradient id="linear-gradient-11" x1="0.795" y1="0.244" x2="-0.664" y2="2.204" gradientUnits="objectBoundingBox">
      <stop offset="0" stop-color="#fdf53f"/>
      <stop offset="0.603" stop-color="#e78556"/>
      <stop offset="1" stop-color="#d93c65"/>
    </linearGradient>
    <linearGradient id="linear-gradient-12" x1="-0.476" y1="-0.985" x2="0.703" y2="0.968" xlink:href="#linear-gradient"/>
    <linearGradient id="linear-gradient-13" x1="1.756" y1="-0.871" x2="0.129" y2="1.258" xlink:href="#linear-gradient"/>
    <linearGradient id="linear-gradient-14" x1="0.747" y1="-0.372" x2="0.099" y2="1.901" gradientUnits="objectBoundingBox">
      <stop offset="0" stop-color="#53d8ff"/>
      <stop offset="1" stop-color="#3840f7"/>
    </linearGradient>
    <linearGradient id="linear-gradient-15" x1="-1.793" y1="-1.942" x2="-1.665" y2="0.125" gradientUnits="objectBoundingBox">
      <stop offset="0" stop-color="#fdf53f"/>
      <stop offset="0.858" stop-color="#de5660"/>
      <stop offset="1" stop-color="#d93c65"/>
    </linearGradient>
    <linearGradient id="linear-gradient-16" x1="0.644" y1="-1.818" x2="0.517" y2="0.207" xlink:href="#linear-gradient"/>
    <linearGradient id="linear-gradient-17" x1="0.348" y1="-1.795" x2="0.465" y2="-0.032" xlink:href="#linear-gradient"/>
    <linearGradient id="linear-gradient-18" x1="11.28" y1="-7.186" x2="3.863" y2="1.324" xlink:href="#linear-gradient"/>
    <linearGradient id="linear-gradient-19" x1="1.349" y1="-0.585" x2="-0.402" y2="1.38" xlink:href="#linear-gradient"/>
    <linearGradient id="linear-gradient-20" x1="-1.577" y1="-1.386" x2="-6.77" y2="9.452" xlink:href="#linear-gradient"/>
    <linearGradient id="linear-gradient-21" x1="-2.765" y1="-1.165" x2="-7.855" y2="7.36" xlink:href="#linear-gradient"/>
    <linearGradient id="linear-gradient-22" x1="2.071" y1="-0.542" x2="-1.122" y2="1.835" xlink:href="#linear-gradient"/>
    <clipPath id="clip-path-2">
      <path id="SVGID-2" data-name="SVGID" d="M1552.094,1095.675a17.066,17.066,0,0,1,1.747-17.363c36.841-48.631,228.864-303.362,258.378-368.3,32.672-71.887,15.84-90.16,15.84-90.16s51.069,59.467,48.807,100.3c-2.483,44.814-8.274,90.454-94.206,198.75-67.592,85.183-161.246,221.439-184.412,255.832a5.4,5.4,0,0,1-9.549-.845Z" transform="translate(-1550.498 -619.851)" fill="url(#linear-gradient)"/>
    </clipPath>
    <linearGradient id="linear-gradient-24" x1="0.597" y1="0.209" x2="0.145" y2="2.043" xlink:href="#linear-gradient-14"/>
    <linearGradient id="linear-gradient-25" x1="2.585" y1="-3.6" x2="-2.608" y2="7.138" xlink:href="#linear-gradient"/>
    <linearGradient id="linear-gradient-26" x1="0.555" y1="-1.132" x2="0.513" y2="0.335" xlink:href="#linear-gradient"/>
    <linearGradient id="linear-gradient-27" x1="0.422" y1="-0.528" x2="0.58" y2="1.782" xlink:href="#linear-gradient"/>
    <linearGradient id="linear-gradient-28" x1="0.35" y1="0.086" x2="1.866" y2="2.84" xlink:href="#linear-gradient"/>
    <linearGradient id="linear-gradient-29" x1="5.034" y1="-0.98" x2="0.302" y2="7.13" xlink:href="#linear-gradient"/>
    <linearGradient id="linear-gradient-30" x1="-0.262" y1="0.103" x2="2.207" y2="1.803" xlink:href="#linear-gradient"/>
    <linearGradient id="linear-gradient-31" x1="0.452" y1="-0.814" x2="0.499" y2="0.451" xlink:href="#linear-gradient"/>
    <linearGradient id="linear-gradient-32" x1="0.35" y1="-1.942" x2="0.478" y2="0.125" xlink:href="#linear-gradient-15"/>
    <linearGradient id="linear-gradient-33" x1="0.655" y1="0.094" x2="-3.36" y2="10.867" xlink:href="#linear-gradient-14"/>
    <linearGradient id="linear-gradient-34" x1="1.12" y1="-2.695" x2="0.787" y2="-0.977" xlink:href="#linear-gradient"/>
    <linearGradient id="linear-gradient-35" x1="4.336" y1="-7.186" x2="-3.081" y2="1.324" xlink:href="#linear-gradient"/>
    <linearGradient id="linear-gradient-36" x1="0.671" y1="0.291" x2="-0.198" y2="2.027" xlink:href="#linear-gradient"/>
    <linearGradient id="linear-gradient-37" x1="1.508" y1="-1.386" x2="-3.685" y2="9.452" xlink:href="#linear-gradient"/>
    <linearGradient id="linear-gradient-38" x1="0.974" y1="0.328" x2="-1.706" y2="2.505" xlink:href="#linear-gradient"/>
    <linearGradient id="linear-gradient-39" x1="0.75" y1="0.326" x2="-6.457" y2="8.922" xlink:href="#linear-gradient-8"/>
    <linearGradient id="linear-gradient-40" x1="2.212" y1="-0.793" x2="2.505" y2="0.01" gradientUnits="objectBoundingBox">
      <stop offset="0" stop-color="#b37cff"/>
      <stop offset="1" stop-color="#f895e7"/>
    </linearGradient>
    <linearGradient id="linear-gradient-41" x1="1.462" y1="0.325" x2="3.568" y2="0.739" gradientUnits="objectBoundingBox">
      <stop offset="0" stop-color="#a737d5"/>
      <stop offset="1" stop-color="#ef497a"/>
    </linearGradient>
    <linearGradient id="linear-gradient-42" x1="-18.974" y1="0.317" x2="-16.525" y2="4.103" xlink:href="#linear-gradient"/>
    <linearGradient id="linear-gradient-43" x1="-59.169" y1="0.5" x2="-58.169" y2="0.5" gradientUnits="objectBoundingBox">
      <stop offset="0" stop-color="#2b3582"/>
      <stop offset="1" stop-color="#150e42"/>
    </linearGradient>
    <linearGradient id="linear-gradient-44" x1="-146.858" y1="0.5" x2="-145.858" y2="0.5" gradientUnits="objectBoundingBox">
      <stop offset="0" stop-color="#f9b776"/>
      <stop offset="1" stop-color="#f47960"/>
    </linearGradient>
    <linearGradient id="linear-gradient-45" x1="-34.637" y1="0.5" x2="-33.637" y2="0.5" xlink:href="#linear-gradient-43"/>
    <linearGradient id="linear-gradient-46" x1="-137.517" y1="0.5" x2="-136.517" y2="0.5" xlink:href="#linear-gradient-44"/>
    <linearGradient id="linear-gradient-47" x1="-19.655" y1="0.11" x2="-21.401" y2="0.984" xlink:href="#linear-gradient-8"/>
    <linearGradient id="linear-gradient-48" x1="-4.256" y1="-1.509" x2="3.766" y2="1.879" xlink:href="#linear-gradient-8"/>
    <linearGradient id="linear-gradient-49" x1="-15.036" y1="-0.696" x2="-15.702" y2="1.105" xlink:href="#linear-gradient-8"/>
    <linearGradient id="linear-gradient-50" x1="-32.67" y1="0.5" x2="-31.67" y2="0.5" xlink:href="#linear-gradient-44"/>
    <linearGradient id="linear-gradient-51" x1="-9.018" y1="0.464" x2="-9.162" y2="2.069" xlink:href="#linear-gradient-8"/>
    <linearGradient id="linear-gradient-52" x1="-31.645" y1="-1.615" x2="-33.929" y2="1.548" xlink:href="#linear-gradient-44"/>
    <linearGradient id="linear-gradient-53" x1="-24.244" y1="-2.795" x2="-26.083" y2="5.663" xlink:href="#linear-gradient-44"/>
    <linearGradient id="linear-gradient-54" x1="-43.75" y1="-1.142" x2="-46.4" y2="2.815" xlink:href="#linear-gradient-44"/>
    <linearGradient id="linear-gradient-55" x1="-39.107" y1="-5.87" x2="-40.324" y2="-4.575" xlink:href="#linear-gradient-44"/>
    <linearGradient id="linear-gradient-56" x1="-28.672" y1="-3.407" x2="-27.628" y2="-3.407" xlink:href="#linear-gradient-43"/>
    <linearGradient id="linear-gradient-57" x1="-115.362" y1="-17.085" x2="-112.66" y2="-19.623" xlink:href="#linear-gradient-44"/>
    <linearGradient id="linear-gradient-58" x1="-32.1" y1="-0.309" x2="-41.53" y2="0.662" gradientUnits="objectBoundingBox">
      <stop offset="0" stop-color="#18459f"/>
      <stop offset="1" stop-color="#2874b5"/>
    </linearGradient>
    <linearGradient id="linear-gradient-59" x1="-37.269" y1="-0.107" x2="-40.791" y2="0.688" xlink:href="#linear-gradient-58"/>
    <linearGradient id="linear-gradient-60" x1="-4.465" y1="-0.814" x2="-5.489" y2="3.512" xlink:href="#linear-gradient-58"/>
    <linearGradient id="linear-gradient-61" x1="-18.98" y1="0.196" x2="-22.93" y2="1.115" xlink:href="#linear-gradient-58"/>
    <linearGradient id="linear-gradient-62" x1="-5.38" y1="0.396" x2="-4.403" y2="0.396" xlink:href="#linear-gradient-44"/>
    <linearGradient id="linear-gradient-63" x1="-8.716" y1="-0.467" x2="-7.82" y2="-0.467" xlink:href="#linear-gradient-44"/>
    <linearGradient id="linear-gradient-64" x1="-91.21" y1="-23.109" x2="-89.844" y2="-23.109" gradientUnits="objectBoundingBox">
      <stop offset="0" stop-color="#2c759e"/>
      <stop offset="1" stop-color="#051042"/>
    </linearGradient>
    <linearGradient id="linear-gradient-65" x1="-93.017" y1="-21.758" x2="-91.651" y2="-21.758" xlink:href="#linear-gradient-64"/>
    <linearGradient id="linear-gradient-66" x1="4.065" y1="0.725" x2="4.969" y2="0.725" xlink:href="#linear-gradient-43"/>
    <linearGradient id="linear-gradient-67" x1="0.825" y1="-0.331" x2="-0.165" y2="1.968" xlink:href="#linear-gradient-14"/>
    <linearGradient id="linear-gradient-68" x1="67.566" y1="17.558" x2="65.827" y2="11.792" gradientUnits="objectBoundingBox">
      <stop offset="0" stop-color="#c4421b"/>
      <stop offset="1" stop-color="#5c0e16"/>
    </linearGradient>
    <linearGradient id="linear-gradient-69" x1="33.681" y1="2.191" x2="34.591" y2="-0.722" xlink:href="#linear-gradient-44"/>
    <linearGradient id="linear-gradient-70" x1="10.431" y1="-2.41" x2="7.494" y2="1.153" xlink:href="#linear-gradient-43"/>
    <linearGradient id="linear-gradient-71" x1="7.883" y1="4.945" x2="7.731" y2="3.702" xlink:href="#linear-gradient-44"/>
    <linearGradient id="linear-gradient-72" x1="15.311" y1="-4.652" x2="11.364" y2="1.278" xlink:href="#linear-gradient-43"/>
    <linearGradient id="linear-gradient-73" x1="34.382" y1="18.046" x2="33.692" y2="13.129" xlink:href="#linear-gradient-44"/>
    <linearGradient id="linear-gradient-74" x1="-38.992" y1="-0.378" x2="-45.196" y2="1.029" xlink:href="#linear-gradient-58"/>
    <linearGradient id="linear-gradient-75" x1="-25.147" y1="0.026" x2="-31.475" y2="1.27" xlink:href="#linear-gradient-58"/>
    <linearGradient id="linear-gradient-76" x1="-2.859" y1="-4.703" x2="-3.908" y2="4.447" xlink:href="#linear-gradient-58"/>
    <linearGradient id="linear-gradient-77" x1="5.024" y1="12.454" x2="11.756" y2="12.36" xlink:href="#linear-gradient-44"/>
    <linearGradient id="linear-gradient-78" x1="-15.449" y1="0.654" x2="-15.93" y2="2.351" xlink:href="#linear-gradient-14"/>
    <linearGradient id="linear-gradient-79" x1="-18.378" y1="-0.416" x2="-16.292" y2="3.88" xlink:href="#linear-gradient"/>
    <linearGradient id="linear-gradient-80" x1="1.206" y1="-0.808" x2="-0.892" y2="3.079" xlink:href="#linear-gradient-4"/>
    <linearGradient id="linear-gradient-81" x1="-21.38" y1="-0.167" x2="-26.436" y2="6.091" xlink:href="#linear-gradient-14"/>
    <linearGradient id="linear-gradient-82" x1="-20.983" y1="-0.728" x2="-26.039" y2="5.531" xlink:href="#linear-gradient"/>
    <linearGradient id="linear-gradient-83" x1="-19.978" y1="-0.005" x2="-20.259" y2="3.269" xlink:href="#linear-gradient-14"/>
    <linearGradient id="linear-gradient-84" x1="2.086" y1="-2.719" x2="-0.014" y2="1.544" xlink:href="#linear-gradient-14"/>
  </defs>
  <g id="Group_260" data-name="Group 260" transform="translate(-407.134 -463.45)">
    <path id="Path_13" data-name="Path 13" d="M1053.169,1016.422c-13.7,13.725-26.661,22.577-36.9,29.57-120.381,82.2-262.824,58.242-293.1,52.39-44.7-8.641-131.115-25.344-193.59-95.265-94.518-105.785-79.8-272.445-6.485-382.46,13.41-20.124,84.248-131.814,228.225-149.726,87.133-10.84,188.7,11.023,262.257,69.671C1167.973,663.709,1156.981,912.409,1053.169,1016.422Z" transform="translate(-56.228 -3.738)" fill="url(#linear-gradient-3)"/>
    <g id="Group_247" data-name="Group 247" transform="translate(696.002 463.45)">
      <path id="Path_14" data-name="Path 14" d="M2204.953,577.328s-97.088-114-209.586-7.329l7.7-65.143s79.366-90.386,174.142-4.071C2177.214,500.785,2203.412,536.614,2204.953,577.328Z" transform="translate(-1896.691 -463.45)" fill="url(#linear-gradient-4)"/>
      <path id="Path_15" data-name="Path 15" d="M2160.213,1065.565a1.255,1.255,0,0,0-.159-1.183c-10.368-13.917-218.827-293.953-238.346-338.082-20.018-45.256-36.815-89.852-26.473-115.315,0,0-39.764,33.171-48.258,83.442-5.517,32.654-7.747,86.926,143.986,292.494,87.163,118.087,116.5,160.216,126.289,174.919a4.448,4.448,0,0,0,8.01-1.085Z" transform="translate(-1779.823 -578.26)" fill="url(#linear-gradient-5)"/>
      <path id="Path_16" data-name="Path 16" d="M1575.055,1082.631a16.912,16.912,0,0,1,1.731-17.2c36.492-48.184,226.7-300.572,255.934-364.914,32.363-71.226,10.985-89.331,10.985-89.331s47.576,51.623,49.887,96.035-12.329,103.905-90.153,200.269c-67.638,83.751-159.721,219.4-182.667,253.479a5.351,5.351,0,0,1-9.459-.837Z" transform="translate(-1568.378 -578.414)" fill="url(#linear-gradient-6)"/>
      <g id="Group_242" data-name="Group 242" transform="translate(65.365 32.436)">
        <path id="SVGID-3" data-name="SVGID" d="M2160.213,1064.264a1.254,1.254,0,0,0-.159-1.182c-10.368-13.917-218.827-293.953-238.346-338.083-20.018-45.256-36.815-89.852-26.473-115.315,0,0-39.764,33.171-48.258,83.442-5.517,32.654-7.747,86.926,143.986,292.494,87.163,118.087,116.5,160.216,126.289,174.919a4.448,4.448,0,0,0,8.01-1.085Z" transform="translate(-1845.188 -609.684)" fill="url(#linear-gradient)"/>
        <g id="Group_241" data-name="Group 241" clip-path="url(#clip-path)">
          <path id="Path_17" data-name="Path 17" d="M2947.076,2652.221c-2.5-4.792-6.264-14.594-1.088-23.2,6.754-11.232,33.707,5.6,20.283,22.928a1.989,1.989,0,0,0,1.394,3.227h27.817v-32.58c0-2.756,2.64-4.567,4.927-3.377a41.4,41.4,0,0,0,12.249,4.3c8.861,1.376,14.124-9.636,12.97-18.814s-11.282-14.684-16.345-13.766c-2.351.426-5.477,2.661-8.151,4.934-2.265,1.925-5.571.185-5.571-2.941v-31.818h-26.874c-2.205,0-3.45-2.744-2.114-4.652,5.62-8.029,3.143-18-4.55-21.045-9.283-3.671-17.722-.918-18.989,9.636a18.074,18.074,0,0,0,5.783,16.06h-29.478l1.063,31.959c.1,3.043-2.989,4.925-5.333,3.259a26.968,26.968,0,0,0-11.277-4.933c-9.283-1.377-17.722,6.883-17.722,15.6s7.174,19.272,18.566,16.978a44.507,44.507,0,0,0,9.208-2.762,3.474,3.474,0,0,1,4.716,3.476v30.489H2945.5A1.977,1.977,0,0,0,2947.076,2652.221Z" transform="translate(-2655.191 -2094.682)" fill="url(#linear-gradient-8)"/>
          <path id="Path_18" data-name="Path 18" d="M3110.654,2316.826c3.239,2.093,7.425,4.333,11.068,4.8,7.174.917,13.925-8.719,12.659-20.19-1.076-9.75-12.822-18.507-23.577-10.206-2.32,1.79-5.538-.132-5.538-3.226v-29h-24.586c-2.781,0-4.3,3.457-2.609,5.859,7.074,10.061,8.671,25.844-9.094,25.1-15.891-.665-12.945-14.808-10.112-22.557a3.6,3.6,0,0,0-3.083-4.974H3031v28.7c0,3.012,3.1,4.8,5.384,3.089,2.84-2.125,6.354-4.277,9.385-4.717,6.329-.917,14.768,4.588,14.768,13.766s-2.532,17.9-13.081,16.978a29.637,29.637,0,0,1-11.463-3.385,3.466,3.466,0,0,0-4.994,3.34v31.971h11.141c5.3,0,10.541.565,15.844.843,1.6.083,3.512.006,4.379-1.461a3.349,3.349,0,0,0,.049-3c-.946-2.083-3.445-3.1-4.747-5.02a13.891,13.891,0,0,1-2.219-6.3c-.843-7.342,8.889-12.348,16.906-11.657,6.313.544,13.656,10.915,10.279,20.025-1.168,3.15,1.06,6.573,4.183,6.573h18.45v-32.032C3105.265,2317.135,3108.275,2315.289,3110.654,2316.826Z" transform="translate(-2767.975 -1882.554)" fill="url(#linear-gradient-9)"/>
          <path id="Path_19" data-name="Path 19" d="M2762.123,2212.18a29.639,29.639,0,0,0,11.462,3.385c10.549.918,13.081-7.8,13.081-16.978s-8.439-14.683-14.769-13.766c-3.031.44-6.544,2.592-9.385,4.717-2.282,1.707-5.384-.076-5.384-3.089v-28.7h-25.254c-2.567,0-4.206-3.047-2.874-5.433,1.548-2.774,2.81-6.887,2.81-12.921,0-15.6-16.878-22.025-21.645-9.177-3.161,8.52-2.129,17.847-1.076,23.164a3.541,3.541,0,0,1-3.254,4.367h-26.77v27.833c0,3.3,3.348,5.313,5.9,3.534,3.158-2.2,6.919-4.536,9.515-5.212,5.286-1.377,14.967,5.047,15.389,16.06s-4.642,15.6-14.768,16.519a16.509,16.509,0,0,1-10.339-2.544c-2.539-1.577-5.7.514-5.7,3.693v29.86h24.48c3.015,0,5.163-3.171,4.27-6.3-2.117-7.417-3.1-18.887,10.492-20.118,16.661-1.51,16.078,8.9,11.635,19.587-1.332,3.2.851,6.833,4.084,6.833h23.1V2215.52A3.466,3.466,0,0,1,2762.123,2212.18Z" transform="translate(-2494.104 -1777.87)" fill="url(#linear-gradient-10)"/>
          <path id="Path_20" data-name="Path 20" d="M2580.245,1848.29c-1.053-5.317-2.085-14.644,1.076-23.164,4.766-12.848,21.645-6.424,21.645,9.177,0,6.034-1.262,10.146-2.811,12.921-1.332,2.386.308,5.434,2.875,5.434h25.254v-31.516a3.458,3.458,0,0,1,5.2-3.221,18.592,18.592,0,0,0,9.571,3.076c8.017,0,16.034-10.554,14.769-20.19s-7.885-16.519-14.7-14.684c-3.122.84-6.5,3.248-9.235,5.612-2.266,1.955-5.6.229-5.6-2.917v-33.438h-23.026c-2.78,0-4.666-3.1-3.544-5.865,4.429-10.921.9-27.98-16.47-18.913-12.038,6.283-11.616,13.463-9.033,18.471,1.456,2.825-.364,6.307-3.343,6.307h-22.439L2550.6,1786c.018,3.2-3.142,5.243-5.71,3.676a23.476,23.476,0,0,0-14.075-3.549c-12.107.918-16.878,9.636-17.3,19.272s8.439,19.731,18.988,16.978a35.711,35.711,0,0,0,11.783-5.763c2.536-1.845,5.939.188,5.939,3.506v32.541h26.77A3.542,3.542,0,0,0,2580.245,1848.29Z" transform="translate(-2365.259 -1472.778)" fill="url(#linear-gradient-11)"/>
          <path id="Path_21" data-name="Path 21" d="M2380.345,1348.677c2.425-4.543,4.291-10.653.48-15.225-6.885-8.26-20.653-10.1-24.095,2.753a16.231,16.231,0,0,0,1.25,12.463c1.546,2.794-.36,6.316-3.4,6.316h-21.943v31.224a3.253,3.253,0,0,0,5.142,2.826c14.721-10.9,22.4,1.956,22.413,7.74.018,6.424-2.6,21.567-12.065,21.108a22.309,22.309,0,0,1-10.574-3.384,3.263,3.263,0,0,0-4.915,2.985v29.1h22.709a3.625,3.625,0,0,1,2.838,5.588,24.265,24.265,0,0,0-3.173,12.511c-.2,14.561,20.652,11.93,25.816,7.342,3.688-3.278,3.84-13.787.968-20.286a3.655,3.655,0,0,1,3.173-5.155h22.1v-31.847a2.8,2.8,0,0,1,4.236-2.563c3.8,2.411,9.68,5.434,15.556,5.706,9.9.459,11.187-11.471,11.617-20.649.38-8.105-13.68-17.642-25.118-9.643a2.8,2.8,0,0,1-4.36-2.47v-30.135h-25.248C2380.717,1354.984,2378.842,1351.492,2380.345,1348.677Z" transform="translate(-2224.515 -1163.205)" fill="url(#linear-gradient-12)"/>
          <path id="Path_22" data-name="Path 22" d="M2560.083,2630.979a30.692,30.692,0,0,1-11.869,3.505c-10.924.95-13.545-8.078-13.545-17.581s8.739-15.2,15.293-14.255c3.138.455,6.777,2.684,9.718,4.885,2.364,1.768,5.576-.079,5.576-3.2v-29.72h26.15c3.332,0,3.486-3.338,3.157-5.993a72.489,72.489,0,0,1-.606-12.3c.111-2.422.4-4.955,1.675-6.942,1.91-2.968,5.521-3.963,8.844-4.22a18.863,18.863,0,0,1,8.483,1.026,11.5,11.5,0,0,1,6.346,5.957c1.483,3.435.991,7.569-.481,11.01a12.741,12.741,0,0,0-1.37,4.064,6.343,6.343,0,0,0,3.208,5.571c4.583,2.778,10.774,1.828,15.8,1.828h9.628v28.822c0,3.412-3.468,5.5-6.109,3.659-3.27-2.28-7.164-4.7-9.853-5.4-5.474-1.426-15.5,5.226-15.936,16.63-.186,4.87.694,11.614,5.388,13.574a22.334,22.334,0,0,0,17.093-.318,18.807,18.807,0,0,1,4.514-1.683,4.2,4.2,0,0,1,4.264,1.685,5.424,5.424,0,0,1,.667,2.232c.709,6.311-.029,13.371-.029,19.76v13.968h-25.35c-3.122,0-5.346-3.283-4.421-6.526,2.191-7.68,3.2-19.558-10.866-20.833-17.253-1.564-16.649,9.219-12.048,20.282,1.38,3.318-.881,7.077-4.229,7.077h-23.921v-33.107A3.589,3.589,0,0,0,2560.083,2630.979Z" transform="translate(-2381.736 -2103.33)" fill="url(#linear-gradient-13)"/>
          <path id="Path_23" data-name="Path 23" d="M1928.756,938.888c3.593-5.673,7.106-15.758-5.939-23.466-6.8-4.016-15.191,2.282-16.14,13.294a23.284,23.284,0,0,0,1.932,12.139,2.789,2.789,0,0,1-2.316,4.036h-25.015v30c0,2.977-2.968,4.833-5.339,3.343-16.393-10.3-23.349,6.319-23.063,10.481.315,4.589,2.638,18.813,12.344,18.813a22.236,22.236,0,0,0,10.87-2.958,3.582,3.582,0,0,1,5.241,3.409v25.846h23.915c2.7,0,4.584,2.938,3.617,5.682a38.256,38.256,0,0,0-2.292,15.283c.844,11.013,15.032,13.766,22.285,7.342,5.355-4.744,1.486-13.527-1.544-20.186-1.259-2.767.644-6,3.483-6h28.943v-32.314c0-2.715,2.731-4.384,4.858-2.961a32.531,32.531,0,0,0,9.489,4.565c7.173,1.836,12.273-8.259,12.677-16.519s-5.082-14.224-13.943-14.683a12.039,12.039,0,0,0-8.071,2.586c-2.112,1.612-5.01-.039-5.01-2.845V943.259h-28.845A2.815,2.815,0,0,1,1928.756,938.888Z" transform="translate(-1851.164 -844.699)" fill="url(#linear-gradient-14)"/>
          <path id="Path_24" data-name="Path 24" d="M1561.811,731.41c-1.834-3.146-3.357-8.04-1.705-14.748,3.165-12.848,13.925-12.16,19.2-9.636,4.443,2.126,9.634,14.669,3.722,23.508-1.249,1.867-.065,4.482,2.058,4.482h25.469V702.542c0-2.865,2.763-4.753,5.12-3.473a26.95,26.95,0,0,0,10.469,3.139c10.127.918,14.927-8.718,14.426-18.355-.435-8.357-11.6-18.786-23.643-9.731-2.346,1.765-5.552-.094-5.552-3.2V642.259h-31.225c9.705,8.88,7.173,21.863-2.532,26.911s-18.566.918-19.41-10.554a17.014,17.014,0,0,1,3.465-12.319,1.992,1.992,0,0,0-1.353-3.282h-25.2v28.151c0,3.086-3.286,4.914-5.507,2.993a12.107,12.107,0,0,0-7.277-3.155c-8.439-.459-16.456,6.424-17.3,15.6s7.173,18.813,15.19,17.437a32.384,32.384,0,0,0,10.161-3.867c2.293-1.3,5.03.507,5.03,3.319V735.7h24.209A2.811,2.811,0,0,0,1561.811,731.41Z" transform="translate(-1580.441 -634.824)" fill="url(#linear-gradient-15)"/>
          <path id="Path_25" data-name="Path 25" d="M1927.341,1446.4c3.03,6.659,6.9,15.443,1.544,20.186-7.252,6.424-21.44,3.671-22.285-7.342a38.252,38.252,0,0,1,2.292-15.283c.966-2.745-.915-5.682-3.618-5.682H1881.36V1470.2c0,2.971-2.94,4.81-5.321,3.354-11.008-6.732-24.469-5.72-23.027,15.063,1.217,17.526,14.924,13.6,22.487,10.046,2.337-1.1,4.94.8,4.94,3.566v29.763H1905.3c2.516,0,4.119-2.911,2.931-5.324-1.969-4-3.9-9.565-2.478-14.19,2.532-8.259,17.564-8.259,23.128-2.753,3.581,3.543,1.013,11.752-1.272,17.155-1.015,2.4.594,5.125,3.022,5.125h29.132v-29.1a3.2,3.2,0,0,1,4.82-2.985,21.594,21.594,0,0,0,10.37,3.384c9.283.459,11.851-14.683,11.833-21.107-.016-5.784-7.543-18.637-21.98-7.74a3.19,3.19,0,0,1-5.043-2.826V1440.4h-28.943C1927.986,1440.4,1926.082,1443.634,1927.341,1446.4Z" transform="translate(-1851.193 -1249.156)" fill="url(#linear-gradient-16)"/>
          <path id="Path_26" data-name="Path 26" d="M2380.689,1855.894c2.936,4.949,6.175,13.143.235,19.009-9.062,8.948-22.33,3.786-23.948-6.539a17.639,17.639,0,0,1,2.693-12.359,2.822,2.822,0,0,0-2.158-4.415h-23.3v30.51a3.251,3.251,0,0,0,5.123,2.845,12.492,12.492,0,0,1,8.253-2.586c9.062.459,14.671,6.423,14.258,14.683s-5.628,18.354-12.963,16.519a33.588,33.588,0,0,1-9.7-4.565,3.262,3.262,0,0,0-4.967,2.96v32.314h22.006a4.2,4.2,0,0,0,3.412-6.316,16.192,16.192,0,0,1-1.255-12.463c3.453-12.848,17.261-11.012,24.165-2.753,3.822,4.573,1.951,10.683-.481,15.226-1.507,2.815.374,6.307,3.419,6.307h25.32v-32.039a2.815,2.815,0,0,0-4.042-2.682,38.9,38.9,0,0,1-13.86,4.471c-9.493.918-11.239-11.93-11.661-20.19-.381-7.462,11.2-19.045,25.061-8.012a2.8,2.8,0,0,0,4.505-2.373V1851.59h-27.888A2.81,2.81,0,0,0,2380.689,1855.894Z" transform="translate(-2225.744 -1568.13)" fill="url(#linear-gradient-17)"/>
          <g id="Group_239" data-name="Group 239" transform="translate(108.286 465.811)">
            <path id="Path_27" data-name="Path 27" d="M2390.056,2664.133c2.816,6.5,2.667,17.009-.95,20.286-5.063,4.589-25.509,7.219-25.317-7.342a24.635,24.635,0,0,1,3.111-12.511c1.438-2.413-.138-5.588-2.782-5.588h-22.271v31.314c0,2.837,2.951,4.473,5.065,2.809,2.617-2.06,5.879-4.12,8.86-4.552,6.329-.918,13.5,7.341,13.081,16.06s-3.8,18.813-12.237,17.9a20.743,20.743,0,0,1-9.754-4.1,3.194,3.194,0,0,0-5.014,2.852v30.883h23.63s-11.66,24.054,3.454,25.89c13.771,1.672,22.663-.606,18.086-19.788-.736-3.083,1.391-6.1,4.321-6.1h23.51v-30.894a2.772,2.772,0,0,0-3.783-2.765,37.475,37.475,0,0,1-10.564,3.108c-7.595.918-12.237-5.965-12.658-16.977-.383-9.98,10.325-15.815,23.013-8.967a2.748,2.748,0,0,0,3.992-2.622v-34.043h-21.678A3.653,3.653,0,0,0,2390.056,2664.133Z" transform="translate(-2339.969 -2657.046)" fill="url(#linear-gradient-18)"/>
            <path id="Path_28" data-name="Path 28" d="M2368.785,2773.883a55.973,55.973,0,0,1-6.662-.469c-3.78-.459-6.476-2.176-8.013-5.1-3.21-6.115-.029-15.97,1.888-20.773H2335.26a1.905,1.905,0,0,1-1.877-1.932v-30.883a5.4,5.4,0,0,1,2.792-4.819,4.864,4.864,0,0,1,5.185.391,18.618,18.618,0,0,0,8.866,3.758,6.322,6.322,0,0,0,5.128-1.581c2.835-2.5,4.719-7.914,5.036-14.49a15.242,15.242,0,0,0-4.713-11.519c-2.012-1.891-4.287-2.814-6.23-2.532-2.148.311-4.908,1.754-7.981,4.174a4.8,4.8,0,0,1-5.2.533,5.4,5.4,0,0,1-2.886-4.878v-31.314a1.9,1.9,0,0,1,1.877-1.932h22.271a5.092,5.092,0,0,1,4.5,2.755,5.857,5.857,0,0,1-.113,5.775,22.9,22.9,0,0,0-2.834,11.527c-.05,3.745,1.422,6.273,4.5,7.729,5.573,2.639,14.836.732,17.7-1.863,2.784-2.523,3.037-12.139.476-18.05h0a5.76,5.76,0,0,1,.42-5.365,5.225,5.225,0,0,1,4.406-2.508h21.678a1.9,1.9,0,0,1,1.877,1.932v34.043a4.886,4.886,0,0,1-2.261,4.2,4.416,4.416,0,0,1-4.479.13c-6.075-3.279-12.14-3.65-16.225-.994a8.939,8.939,0,0,0-4.042,8.174c.239,6.224,1.886,10.986,4.64,13.407a7.277,7.277,0,0,0,5.924,1.728,35.87,35.87,0,0,0,10.03-2.959,4.369,4.369,0,0,1,4.258.37,4.982,4.982,0,0,1,2.155,4.164v30.894a1.905,1.905,0,0,1-1.877,1.932h-23.509a2.457,2.457,0,0,0-1.954,1.014,3.2,3.2,0,0,0-.543,2.7c2.091,8.763,1.577,14.805-1.571,18.472C2377.9,2772.953,2373.492,2773.883,2368.785,2773.883Zm-31.648-30.209h21.752a1.866,1.866,0,0,1,1.6.915,1.979,1.979,0,0,1,.084,1.878c-1.822,3.768-5.942,14.709-3.155,20.01.934,1.779,2.619,2.793,5.148,3.1,8.285,1.006,13,.261,15.3-2.417,2.241-2.609,2.489-7.654.739-14.992a7.124,7.124,0,0,1,1.235-6,6.159,6.159,0,0,1,4.908-2.494h21.632v-28.962a1.106,1.106,0,0,0-.454-.93.693.693,0,0,0-.7-.065,39.528,39.528,0,0,1-11.1,3.258,10.96,10.96,0,0,1-8.8-2.628c-3.61-3.175-5.668-8.775-5.952-16.192a12.858,12.858,0,0,1,5.787-11.593c5.23-3.4,12.7-3.087,19.974.84a.753.753,0,0,0,.792-.015,1.007,1.007,0,0,0,.449-.9v-32.111h-19.8a1.52,1.52,0,0,0-1.256.748,1.8,1.8,0,0,0-.141,1.689c2.992,6.9,3.025,18.491-1.423,22.522-3.727,3.379-14.5,5.906-21.751,2.474-4.442-2.1-6.754-6.008-6.684-11.291a26.754,26.754,0,0,1,3.389-13.5,1.871,1.871,0,0,0,.038-1.868,1.385,1.385,0,0,0-1.22-.779h-20.394v29.382a1.529,1.529,0,0,0,.794,1.414,1.117,1.117,0,0,0,1.253-.138c3.637-2.863,6.913-4.522,9.739-4.931,3.1-.451,6.4.794,9.287,3.505a19.257,19.257,0,0,1,5.93,14.563c-.177,3.657-1.15,12.657-6.345,17.233a9.964,9.964,0,0,1-7.964,2.488,22.241,22.241,0,0,1-10.643-4.448,1.164,1.164,0,0,0-1.289-.11,1.518,1.518,0,0,0-.761,1.386Z" transform="translate(-2333.382 -2650.515)" fill="#fff"/>
          </g>
          <path id="Path_29" data-name="Path 29" d="M2389.529,2156.415c2.424-4.543,4.289-10.653.48-15.226-6.88-8.259-20.641-10.094-24.081,2.753a16.241,16.241,0,0,0,1.25,12.463c1.545,2.795-.36,6.317-3.4,6.317h-21.931v31.224a3.251,3.251,0,0,0,5.139,2.826c14.712-10.9,22.384,1.956,22.4,7.74.018,6.424-2.6,21.567-12.059,21.108a22.288,22.288,0,0,1-10.568-3.384,3.261,3.261,0,0,0-4.913,2.985v29.1h22.7a3.625,3.625,0,0,1,2.836,5.588,24.277,24.277,0,0,0-3.171,12.511c-.2,14.56,20.641,11.93,25.8,7.342,3.686-3.278,3.838-13.787.968-20.286a3.655,3.655,0,0,1,3.171-5.155h22.092v-15.255c0-4.144-2.266-18.818,5.222-16.087.949.347,1.823.9,2.74,1.336,5.111,2.432,15.27,3.063,19.3-2.018,3.594-4.535,3.867-11.656,4.132-17.33.379-8.1-13.672-17.641-25.1-9.643a2.8,2.8,0,0,1-4.358-2.47v-30.135h-25.233C2389.9,2162.722,2388.027,2159.23,2389.529,2156.415Z" transform="translate(-2231.683 -1786.58)" fill="url(#linear-gradient-19)"/>
          <g id="Group_240" data-name="Group 240" transform="translate(-46.521 281.285)">
            <path id="Path_30" data-name="Path 30" d="M1721.879,1906.655c3.239,2.093,7.425,4.334,11.068,4.8,7.173.917,13.925-8.719,12.659-20.19-1.076-9.75-12.822-18.507-23.578-10.206-2.32,1.79-5.537-.132-5.537-3.226v-29H1691.9c-2.781,0-4.3,3.457-2.609,5.859,7.074,10.061,8.671,25.845-9.094,25.1-15.891-.664-12.945-14.808-10.112-22.557a3.6,3.6,0,0,0-3.083-4.974h-24.781v28.7c0,3.012,3.1,4.8,5.384,3.089,2.84-2.125,6.354-4.278,9.384-4.717,6.33-.917,14.768,4.589,14.768,13.766s-2.532,17.9-13.081,16.978a29.642,29.642,0,0,1-11.463-3.385,3.465,3.465,0,0,0-4.994,3.34V1942h22.547c3.2,0,5.4-3.563,4.122-6.752a32.6,32.6,0,0,1-2.224-8.188c-.844-7.342,8.889-12.349,16.906-11.658,6.313.544,13.656,10.915,10.279,20.026-1.167,3.15,1.06,6.572,4.184,6.572h18.45v-32.032C1716.49,1906.964,1719.5,1905.118,1721.879,1906.655Z" transform="translate(-1640.723 -1847.288)" fill="url(#linear-gradient-20)"/>
            <path id="Path_31" data-name="Path 31" d="M1711.22,1938.324h-18.45a5.913,5.913,0,0,1-4.884-2.692,6.629,6.629,0,0,1-.7-5.977,14.079,14.079,0,0,0-1.591-12.215c-1.991-3.258-4.9-5.5-7.41-5.72-4.913-.425-10.377,1.449-13.291,4.553a6.581,6.581,0,0,0-2,5.384,30.678,30.678,0,0,0,2.12,7.78,6.69,6.69,0,0,1-.591,6.132,5.893,5.893,0,0,1-4.919,2.755h-22.548a1.524,1.524,0,0,1-1.5-1.545v-31.971a5.3,5.3,0,0,1,2.443-4.558,4.685,4.685,0,0,1,4.746-.153,28.046,28.046,0,0,0,10.895,3.216c3.3.288,5.8-.415,7.632-2.147,2.535-2.4,3.82-6.869,3.82-13.291a12.135,12.135,0,0,0-4.094-9.157,11.546,11.546,0,0,0-8.964-3.078c-2.257.328-5.269,1.862-8.71,4.437a4.607,4.607,0,0,1-5,.416,5.305,5.305,0,0,1-2.772-4.755v-28.7a1.524,1.524,0,0,1,1.5-1.545h24.782a4.677,4.677,0,0,1,3.913,2.139,5.475,5.475,0,0,1,.576,4.924c-1.509,4.126-3.6,11.729-.659,16.3,1.659,2.576,4.83,3.98,9.426,4.173,5.865.245,9.719-1.333,11.47-4.689,2.25-4.316.748-11.7-3.653-17.963a5.478,5.478,0,0,1-.421-5.591,4.7,4.7,0,0,1,4.247-2.719h24.586a1.524,1.524,0,0,1,1.5,1.545v29a2.382,2.382,0,0,0,1.244,2.159,1.7,1.7,0,0,0,1.891-.17c4.986-3.848,10.646-4.675,15.938-2.327a17.474,17.474,0,0,1,10.033,13.595c.783,7.1-1.326,14.148-5.5,18.4-2.6,2.65-5.742,3.892-8.833,3.5-3.231-.414-7.161-2.1-11.681-5.025h0a1.834,1.834,0,0,0-1.957-.064,2.327,2.327,0,0,0-1.131,2.073v32.032A1.524,1.524,0,0,1,1711.22,1938.324Zm-34.458-29.754q.839,0,1.67.071c3.47.3,7.188,3.041,9.7,7.154a17.21,17.21,0,0,1,1.855,14.963,3.462,3.462,0,0,0,.37,3.121,2.9,2.9,0,0,0,2.411,1.355h16.948v-30.486a5.463,5.463,0,0,1,2.681-4.778,4.751,4.751,0,0,1,5.008.151h0c4.087,2.641,7.7,4.223,10.455,4.575a7.644,7.644,0,0,0,6.349-2.626c3.539-3.6,5.313-9.678,4.632-15.856a14.3,14.3,0,0,0-8.238-11.106c-4.26-1.89-8.858-1.193-12.947,1.962a4.611,4.611,0,0,1-5.036.461,5.47,5.47,0,0,1-2.9-4.924v-27.454h-23.084a1.762,1.762,0,0,0-1.572,1.034,2.33,2.33,0,0,0,.18,2.373c4.27,6.073,7.122,14.995,3.867,21.236-1.609,3.086-5.388,6.687-14.238,6.316-5.614-.235-9.587-2.1-11.808-5.554-3.494-5.427-1.737-13.378.352-19.092a2.308,2.308,0,0,0-.234-2.076,1.733,1.733,0,0,0-1.443-.808h-23.28v27.155a2.19,2.19,0,0,0,1.131,2,1.706,1.706,0,0,0,1.868-.161c3.893-2.913,7.277-4.594,10.058-5a14.557,14.557,0,0,1,11.353,3.806,15.219,15.219,0,0,1,5.127,11.49c0,7.323-1.612,12.56-4.791,15.567-2.451,2.317-5.787,3.312-9.918,2.951a30.978,30.978,0,0,1-12.03-3.555,1.758,1.758,0,0,0-1.8.055,2.217,2.217,0,0,0-1,1.915v30.426H1659.5a2.881,2.881,0,0,0,2.422-1.383,3.528,3.528,0,0,0,.312-3.233,33.8,33.8,0,0,1-2.328-8.6,9.71,9.71,0,0,1,2.822-7.895C1665.947,1910.7,1671.423,1908.57,1676.762,1908.57Z" transform="translate(-1635.453 -1842.062)" fill="#fff"/>
          </g>
          <path id="Path_32" data-name="Path 32" d="M2061.381,1820a20.752,20.752,0,0,0,9.755,4.1c8.439.918,11.814-9.177,12.237-17.9s-6.752-16.978-13.081-16.06c-2.981.432-6.243,2.493-8.86,4.553-2.114,1.663-5.065.027-5.065-2.81v-31.314h-29.132c-2.428,0-4.038-2.727-3.023-5.125,2.286-5.4,4.853-13.611,1.272-17.155-5.565-5.506-20.6-5.506-23.129,2.753-1.417,4.625.508,10.189,2.478,14.19,1.188,2.412-.415,5.324-2.931,5.324h-24.864v29c0,3.094,3.217,5.016,5.538,3.226,10.755-8.3,22.5.455,23.578,10.206,1.266,11.471-5.486,21.107-12.659,20.19-3.643-.466-7.829-2.707-11.068-4.8-2.379-1.537-5.389.309-5.389,3.318v32.032h28.638c3.277,0,5.469-3.717,4.048-6.928-1.693-3.826-8.629-8.525-8.213-12.15.844-7.342,15.876-9.158,23.973-7.791,6.18,1.043,3.107,11.555-.4,19.979-1.346,3.229.8,6.89,4.058,6.89h27.228v-30.883A3.194,3.194,0,0,1,2061.381,1820Z" transform="translate(-1947.793 -1477.736)" fill="url(#linear-gradient-21)"/>
          <path id="Path_33" data-name="Path 33" d="M1668.21,1031.625a26.557,26.557,0,0,1-2.355-7.5c-2.433-16.022,15.8-13.861,23.092-5.6,3.711,4.2,2.471,9.16.359,13.012-1.549,2.824.267,6.4,3.291,6.4h24.815v-25.846a3.582,3.582,0,0,0-5.241-3.409,22.235,22.235,0,0,1-10.87,2.958c-9.705,0-12.029-14.224-12.344-18.813-.286-4.162,6.67-20.783,23.063-10.481,2.37,1.49,5.339-.366,5.339-3.343v-30h-25.468c-2.124,0-3.308-2.614-2.059-4.482,5.913-8.839.721-21.383-3.722-23.508-5.275-2.524-16.035-3.212-19.2,9.636-1.652,6.708-.129,11.6,1.7,14.749a2.81,2.81,0,0,1-2.18,4.294h-24.209v30.858c0,3.023,3.121,4.8,5.4,3.077,3.27-2.47,7.237-5.226,9.521-5.945,4.375-1.376,13.347,1.377,14.746,12.849s-5.618,19.731-14.835,19.272a27.258,27.258,0,0,1-10.072-2.472c-2.261-1.044-4.762.819-4.762,3.49V1037.8H1664.8C1667.715,1037.8,1669.562,1034.436,1668.21,1031.625Z" transform="translate(-1687.244 -848.816)" fill="url(#linear-gradient-22)"/>
        </g>
      </g>
      <g id="Group_246" data-name="Group 246" transform="translate(0 34.691)">
        <path id="SVGID-4" data-name="SVGID" d="M1552.094,1095.675a17.066,17.066,0,0,1,1.747-17.363c36.841-48.631,228.864-303.362,258.378-368.3,32.672-71.887,15.84-90.16,15.84-90.16s51.069,59.467,48.807,100.3c-2.483,44.814-8.274,90.454-94.206,198.75-67.592,85.183-161.246,221.439-184.412,255.832a5.4,5.4,0,0,1-9.549-.845Z" transform="translate(-1550.498 -619.851)" fill="url(#linear-gradient)"/>
        <g id="Group_245" data-name="Group 245" clip-path="url(#clip-path-2)">
          <path id="Path_34" data-name="Path 34" d="M1364.336,2652.252c2.5-4.791,6.264-14.591,1.089-23.2-6.754-11.23-33.707,5.6-20.283,22.922a1.988,1.988,0,0,1-1.394,3.226h-27.817v-32.573c0-2.755-2.64-4.566-4.926-3.375a41.417,41.417,0,0,1-12.249,4.294c-8.861,1.376-14.124-9.634-12.97-18.809s11.282-14.68,16.345-13.763c2.351.426,5.476,2.661,8.151,4.933,2.265,1.925,5.57.185,5.57-2.94V2561.16h26.874c2.205,0,3.45-2.743,2.115-4.65-5.62-8.026-3.143-18,4.55-21.039,9.283-3.67,17.722-.918,18.988,9.634a18.067,18.067,0,0,1-5.782,16.056h29.478l-1.062,31.951c-.1,3.043,2.988,4.924,5.332,3.258a26.968,26.968,0,0,1,11.277-4.932c9.283-1.376,17.722,6.882,17.722,15.6s-7.173,19.267-18.566,16.973a44.455,44.455,0,0,1-9.208-2.761,3.475,3.475,0,0,0-4.716,3.475V2655.2h-26.941A1.976,1.976,0,0,1,1364.336,2652.252Z" transform="translate(-1344.378 -2097.149)" fill="url(#linear-gradient-24)"/>
          <path id="Path_35" data-name="Path 35" d="M1330.745,2316.871c-3.239,2.092-7.425,4.333-11.068,4.8-7.173.917-13.925-8.716-12.659-20.185,1.076-9.749,12.822-18.5,23.578-10.2,2.32,1.79,5.537-.132,5.537-3.225v-28.993h24.586c2.78,0,4.3,3.456,2.609,5.857-7.074,10.059-8.671,25.838,9.094,25.1,15.892-.664,12.945-14.8,10.112-22.552a3.6,3.6,0,0,1,3.083-4.972H1410.4v28.694c0,3.012-3.1,4.8-5.385,3.089-2.84-2.125-6.354-4.277-9.384-4.716-6.329-.917-14.769,4.588-14.769,13.763s2.532,17.891,13.081,16.974a29.645,29.645,0,0,0,11.463-3.384,3.465,3.465,0,0,1,4.994,3.339v31.964h-11.14c-5.3,0-10.541.565-15.844.843-1.6.084-3.511.006-4.378-1.461a3.347,3.347,0,0,1-.049-3c.946-2.083,3.445-3.1,4.747-5.019a13.887,13.887,0,0,0,2.219-6.3c.843-7.34-8.89-12.344-16.907-11.654-6.313.544-13.656,10.913-10.279,20.021,1.167,3.149-1.06,6.571-4.184,6.571h-18.45v-32.024C1336.133,2317.18,1333.123,2315.334,1330.745,2316.871Z" transform="translate(-1360.904 -1885.006)" fill="url(#linear-gradient-25)"/>
          <path id="Path_36" data-name="Path 36" d="M1665.012,2212.218a29.658,29.658,0,0,1-11.463,3.384c-10.549.917-13.081-7.8-13.081-16.974s8.439-14.68,14.769-13.762c3.031.439,6.545,2.591,9.384,4.716,2.282,1.707,5.385-.076,5.385-3.088V2157.8h25.254c2.567,0,4.206-3.047,2.874-5.433-1.548-2.773-2.81-6.885-2.81-12.917,0-15.6,16.878-22.02,21.644-9.175,3.161,8.518,2.13,17.843,1.076,23.159a3.541,3.541,0,0,0,3.254,4.366h26.771v27.827c0,3.295-3.348,5.311-5.9,3.533-3.158-2.2-6.919-4.535-9.515-5.211-5.287-1.376-14.967,5.046-15.389,16.056s4.642,15.6,14.769,16.515a16.515,16.515,0,0,0,10.339-2.543c2.538-1.577,5.7.514,5.7,3.692v29.853h-24.48c-3.015,0-5.163-3.17-4.27-6.3,2.116-7.415,3.1-18.882-10.492-20.113-16.661-1.51-16.078,8.9-11.635,19.582,1.333,3.2-.851,6.831-4.084,6.831h-23.1v-31.964A3.465,3.465,0,0,0,1665.012,2212.218Z" transform="translate(-1620.513 -1780.315)" fill="url(#linear-gradient-26)"/>
          <path id="Path_37" data-name="Path 37" d="M1717.58,1848.321c1.053-5.316,2.085-14.641-1.076-23.159-4.766-12.845-21.644-6.423-21.644,9.175,0,6.033,1.262,10.144,2.81,12.917,1.332,2.386-.307,5.433-2.875,5.433h-25.253v-31.509a3.458,3.458,0,0,0-5.2-3.22,18.6,18.6,0,0,1-9.571,3.075c-8.017,0-16.034-10.551-14.769-20.185s7.885-16.515,14.7-14.68c3.122.84,6.5,3.247,9.235,5.61,2.266,1.954,5.6.228,5.6-2.916v-33.431h23.026c2.78,0,4.665-3.1,3.544-5.864-4.429-10.919-.9-27.973,16.47-18.909,12.038,6.282,11.616,13.46,9.033,18.466-1.457,2.825.364,6.306,3.343,6.306h22.44l-.169,30.609c-.018,3.2,3.142,5.242,5.71,3.676a23.476,23.476,0,0,1,14.076-3.548c12.106.917,16.878,9.634,17.3,19.268s-8.439,19.726-18.988,16.974a35.716,35.716,0,0,1-11.783-5.761c-2.536-1.844-5.939.188-5.939,3.505v32.534h-26.771A3.541,3.541,0,0,1,1717.58,1848.321Z" transform="translate(-1620.048 -1475.202)" fill="url(#linear-gradient-27)"/>
          <path id="Path_38" data-name="Path 38" d="M2052.919,1348.73c-2.426-4.542-4.292-10.65-.48-15.222,6.884-8.258,20.653-10.093,24.1,2.753a16.223,16.223,0,0,1-1.251,12.46c-1.545,2.794.36,6.315,3.4,6.315h21.944v31.216a3.253,3.253,0,0,1-5.142,2.825c-14.721-10.894-22.4,1.956-22.413,7.739-.018,6.422,2.6,21.561,12.065,21.1a22.319,22.319,0,0,0,10.574-3.383,3.263,3.263,0,0,1,4.916,2.984v29.1H2077.92a3.624,3.624,0,0,0-2.838,5.587,24.254,24.254,0,0,1,3.173,12.508c.2,14.557-20.652,11.927-25.816,7.34-3.688-3.277-3.84-13.783-.969-20.282a3.654,3.654,0,0,0-3.173-5.154h-22.1v-31.839a2.8,2.8,0,0,0-4.236-2.563c-3.8,2.411-9.68,5.433-15.556,5.705-9.9.459-11.187-11.469-11.617-20.644-.38-8.1,13.68-17.638,25.118-9.641a2.8,2.8,0,0,0,4.36-2.47v-30.128h25.248C2052.547,1355.035,2054.422,1351.545,2052.919,1348.73Z" transform="translate(-1896.231 -1165.608)" fill="url(#linear-gradient-28)"/>
          <path id="Path_39" data-name="Path 39" d="M1852.463,2631.016a30.69,30.69,0,0,0,11.869,3.505c10.924.95,13.545-8.076,13.545-17.577s-8.739-15.2-15.293-14.251c-3.138.455-6.777,2.683-9.718,4.884-2.363,1.767-5.576-.079-5.576-3.2v-29.713h-26.15c-3.332,0-3.486-3.337-3.157-5.992a72.462,72.462,0,0,0,.607-12.3c-.111-2.422-.4-4.954-1.675-6.94-1.91-2.967-5.521-3.962-8.844-4.219a18.859,18.859,0,0,0-8.483,1.026,11.494,11.494,0,0,0-6.347,5.955c-1.482,3.434-.99,7.568.481,11.008a12.731,12.731,0,0,1,1.371,4.063,6.341,6.341,0,0,1-3.208,5.57c-4.583,2.778-10.775,1.827-15.8,1.827h-9.627v28.814c0,3.412,3.467,5.5,6.109,3.658,3.27-2.279,7.165-4.7,9.853-5.4,5.474-1.425,15.5,5.226,15.936,16.626.187,4.869-.694,11.611-5.388,13.571a22.34,22.34,0,0,1-17.093-.318,18.82,18.82,0,0,0-4.514-1.683,4.2,4.2,0,0,0-4.264,1.685,5.416,5.416,0,0,0-.667,2.231c-.709,6.31.029,13.368.029,19.755v13.964h25.35c3.122,0,5.346-3.282,4.421-6.524-2.191-7.678-3.2-19.553,10.865-20.828,17.253-1.563,16.649,9.217,12.048,20.278-1.38,3.318.881,7.074,4.229,7.074h23.921v-33.1A3.589,3.589,0,0,1,1852.463,2631.016Z" transform="translate(-1718.293 -2105.797)" fill="url(#linear-gradient-29)"/>
          <path id="Path_40" data-name="Path 40" d="M2529.615,577.741a33.962,33.962,0,0,0,2.355-8.631c2.433-18.442-15.8-15.954-23.092-6.447-3.71,4.84-2.471,10.543-.359,14.977,1.549,3.251-.267,7.37-3.291,7.37h-24.815V555.26c0-3.37,2.85-5.469,5.241-3.924a20.084,20.084,0,0,0,10.87,3.4c9.705,0,12.029-16.373,12.344-21.655.286-4.791-6.67-23.922-23.063-12.064-2.371,1.715-5.339-.421-5.339-3.848V482.646h25.469c2.124,0,3.308-3.009,2.059-5.159-5.913-10.174-.721-24.612,3.722-27.059,5.275-2.905,16.034-3.7,19.2,11.092,1.652,7.721.128,13.355-1.705,16.976-1.087,2.148.149,4.943,2.18,4.943H2555.6v35.519c0,3.479-3.121,5.527-5.4,3.542-3.27-2.843-7.236-6.015-9.521-6.842-4.375-1.585-13.347,1.584-14.746,14.789s5.618,22.711,14.835,22.183a24.441,24.441,0,0,0,10.073-2.846c2.261-1.2,4.762.942,4.762,4.017v31.047h-22.573C2530.109,584.846,2528.263,580.977,2529.615,577.741Z" transform="translate(-2274.149 -487.775)" fill="url(#linear-gradient-30)"/>
          <path id="Path_41" data-name="Path 41" d="M2406.055,938.94c-3.593-5.672-7.106-15.755,5.939-23.461,6.8-4.015,15.191,2.281,16.14,13.291a23.279,23.279,0,0,1-1.932,12.136,2.788,2.788,0,0,0,2.315,4.035h25.016v29.99c0,2.977,2.968,4.832,5.339,3.343,16.393-10.3,23.349,6.317,23.063,10.478-.315,4.588-2.638,18.809-12.344,18.809a22.233,22.233,0,0,1-10.87-2.957,3.582,3.582,0,0,0-5.241,3.408v25.84h-23.915c-2.7,0-4.584,2.937-3.617,5.681a38.251,38.251,0,0,1,2.292,15.279c-.844,11.01-15.032,13.762-22.285,7.34-5.355-4.743-1.486-13.524,1.544-20.182,1.259-2.767-.644-6-3.484-6h-28.943v-32.307c0-2.714-2.731-4.382-4.858-2.96a32.552,32.552,0,0,1-9.489,4.564c-7.173,1.835-12.272-8.258-12.677-16.515s5.082-14.221,13.942-14.68a12.041,12.041,0,0,1,8.072,2.585c2.112,1.611,5.009-.039,5.009-2.844v-30.5h28.845A2.815,2.815,0,0,0,2406.055,938.94Z" transform="translate(-2171.128 -847.079)" fill="url(#linear-gradient-31)"/>
          <path id="Path_42" data-name="Path 42" d="M2767,731.448c1.834-3.145,3.357-8.038,1.706-14.745-3.165-12.845-13.925-12.157-19.2-9.634-4.443,2.125-9.634,14.666-3.721,23.5,1.249,1.867.065,4.481-2.059,4.481h-25.469V702.586c0-2.865-2.763-4.752-5.121-3.472a26.948,26.948,0,0,1-10.469,3.138c-10.127.917-14.927-8.717-14.426-18.35.435-8.355,11.6-18.781,23.643-9.728,2.346,1.764,5.552-.094,5.552-3.2V642.317h31.225c-9.7,8.878-7.173,21.858,2.531,26.9s18.566.917,19.41-10.551a17.007,17.007,0,0,0-3.464-12.316,1.992,1.992,0,0,1,1.352-3.281h25.2v28.145c0,3.085,3.286,4.913,5.507,2.993a12.113,12.113,0,0,1,7.277-3.154c8.439-.459,16.457,6.423,17.3,15.6s-7.173,18.809-15.19,17.433a32.392,32.392,0,0,1-10.16-3.866c-2.293-1.3-5.03.507-5.03,3.319v32.2h-24.209A2.81,2.81,0,0,1,2767,731.448Z" transform="translate(-2435.851 -637.191)" fill="url(#linear-gradient-32)"/>
          <path id="Path_43" data-name="Path 43" d="M2407.572,1446.456c-3.03,6.657-6.9,15.439-1.544,20.182,7.253,6.423,21.441,3.67,22.285-7.34a38.24,38.24,0,0,0-2.292-15.279c-.966-2.744.915-5.681,3.618-5.681h23.915v31.908c0,2.97,2.94,4.809,5.322,3.353,11.008-6.73,24.469-5.718,23.027,15.06-1.216,17.522-14.924,13.6-22.487,10.043-2.336-1.1-4.941.8-4.941,3.565v29.756H2429.61c-2.516,0-4.119-2.91-2.931-5.322,1.969-4,3.9-9.563,2.478-14.187-2.532-8.258-17.564-8.258-23.129-2.753-3.581,3.542-1.013,11.749,1.272,17.151a3.6,3.6,0,0,1-3.022,5.124h-29.132v-29.1a3.2,3.2,0,0,0-4.82-2.984,21.594,21.594,0,0,1-10.37,3.383c-9.283.459-11.85-14.68-11.833-21.1.016-5.783,7.544-18.632,21.98-7.738a3.19,3.19,0,0,0,5.043-2.825v-31.217h28.942C2406.927,1440.455,2408.831,1443.69,2407.572,1446.456Z" transform="translate(-2171.202 -1251.564)" fill="url(#linear-gradient-33)"/>
          <path id="Path_44" data-name="Path 44" d="M2155.241,1855.951c-2.936,4.947-6.176,13.14-.235,19,9.062,8.946,22.33,3.785,23.948-6.537a17.632,17.632,0,0,0-2.693-12.357,2.821,2.821,0,0,1,2.158-4.414h23.3v30.5a3.251,3.251,0,0,1-5.123,2.844,12.493,12.493,0,0,0-8.253-2.585c-9.062.458-14.671,6.422-14.258,14.68s5.628,18.35,12.963,16.515a33.607,33.607,0,0,0,9.7-4.564,3.262,3.262,0,0,1,4.968,2.96v32.307h-22.006a4.2,4.2,0,0,1-3.412-6.315,16.183,16.183,0,0,0,1.254-12.46c-3.452-12.845-17.26-11.01-24.164-2.753-3.823,4.572-1.951,10.68.481,15.222,1.507,2.815-.373,6.305-3.419,6.305H2125.13v-32.032a2.815,2.815,0,0,1,4.041-2.681,38.9,38.9,0,0,0,13.861,4.469c9.493.917,11.239-11.927,11.66-20.185.381-7.461-11.2-19.041-25.061-8.01a2.8,2.8,0,0,1-4.505-2.372v-31.849h27.888A2.81,2.81,0,0,1,2155.241,1855.951Z" transform="translate(-1997.668 -1570.56)" fill="url(#linear-gradient-34)"/>
          <g id="Group_243" data-name="Group 243" transform="translate(127.478 463.396)">
            <path id="Path_45" data-name="Path 45" d="M2158.471,2664.19c-2.816,6.5-2.667,17,.949,20.281,5.063,4.588,25.51,7.217,25.317-7.34a24.619,24.619,0,0,0-3.111-12.508c-1.439-2.412.139-5.588,2.783-5.588h22.271v31.307c0,2.836-2.951,4.471-5.065,2.809-2.617-2.059-5.879-4.119-8.86-4.552-6.329-.917-13.5,7.34-13.081,16.057s3.8,18.809,12.237,17.891a20.753,20.753,0,0,0,9.754-4.1,3.194,3.194,0,0,1,5.014,2.851v30.876h-23.63s11.66,24.048-3.454,25.884c-13.771,1.671-22.664-.606-18.086-19.784.736-3.082-1.391-6.1-4.32-6.1h-23.51v-30.886a2.772,2.772,0,0,1,3.783-2.764,37.495,37.495,0,0,0,10.564,3.108c7.6.917,12.237-5.964,12.659-16.974.383-9.978-10.325-15.812-23.014-8.964a2.748,2.748,0,0,1-3.992-2.622v-34.035h21.678A3.653,3.653,0,0,1,2158.471,2664.19Z" transform="translate(-2131.803 -2657.105)" fill="url(#linear-gradient-35)"/>
            <path id="Path_46" data-name="Path 46" d="M2166.569,2773.913c-4.708,0-9.117-.93-11.9-4.164-3.148-3.666-3.662-9.706-1.571-18.468a3.2,3.2,0,0,0-.544-2.7,2.458,2.458,0,0,0-1.954-1.013h-23.509a1.9,1.9,0,0,1-1.877-1.931v-30.886a4.982,4.982,0,0,1,2.154-4.163,4.37,4.37,0,0,1,4.258-.37,35.862,35.862,0,0,0,10.03,2.959,7.283,7.283,0,0,0,5.924-1.728c2.754-2.422,4.4-7.182,4.64-13.4a8.936,8.936,0,0,0-4.042-8.173c-4.084-2.655-10.148-2.284-16.224.995a4.415,4.415,0,0,1-4.479-.13,4.886,4.886,0,0,1-2.261-4.2V2652.5a1.9,1.9,0,0,1,1.877-1.931h21.678a5.224,5.224,0,0,1,4.406,2.508,5.756,5.756,0,0,1,.421,5.364h0c-2.561,5.91-2.308,15.523.476,18.046,2.864,2.594,12.128,4.5,17.7,1.863,3.077-1.456,4.548-3.984,4.5-7.728a22.887,22.887,0,0,0-2.834-11.524,5.857,5.857,0,0,1-.114-5.774,5.092,5.092,0,0,1,4.5-2.754h22.271a1.9,1.9,0,0,1,1.877,1.931v31.306a5.4,5.4,0,0,1-2.885,4.877,4.807,4.807,0,0,1-5.2-.534c-3.075-2.419-5.835-3.862-7.982-4.173-1.948-.283-4.219.64-6.231,2.531a15.236,15.236,0,0,0-4.713,11.516c.318,6.574,2.2,11.99,5.037,14.487a6.334,6.334,0,0,0,5.128,1.581,18.63,18.63,0,0,0,8.866-3.756,4.863,4.863,0,0,1,5.185-.391,5.4,5.4,0,0,1,2.792,4.817v30.876a1.9,1.9,0,0,1-1.877,1.931h-20.739c1.917,4.8,5.1,14.655,1.888,20.768-1.537,2.927-4.232,4.643-8.013,5.1A55.918,55.918,0,0,1,2166.569,2773.913Zm-37.6-30.2H2150.6a6.161,6.161,0,0,1,4.908,2.493,7.124,7.124,0,0,1,1.236,6c-1.751,7.337-1.5,12.38.738,14.989,2.3,2.677,7.021,3.423,15.3,2.416,2.531-.307,4.215-1.322,5.15-3.1,2.79-5.313-1.333-16.24-3.156-20a1.981,1.981,0,0,1,.083-1.878,1.868,1.868,0,0,1,1.6-.915h21.752v-28.945a1.518,1.518,0,0,0-.762-1.386,1.167,1.167,0,0,0-1.289.11,22.239,22.239,0,0,1-10.643,4.448,9.974,9.974,0,0,1-7.964-2.487c-5.2-4.575-6.168-13.573-6.346-17.229a19.252,19.252,0,0,1,5.931-14.56c2.883-2.71,6.178-3.957,9.288-3.5,2.824.409,6.1,2.068,9.738,4.93a1.116,1.116,0,0,0,1.252.138,1.528,1.528,0,0,0,.795-1.414v-29.375h-20.394a1.385,1.385,0,0,0-1.22.778,1.871,1.871,0,0,0,.038,1.868,26.749,26.749,0,0,1,3.389,13.492c.069,5.283-2.242,9.187-6.684,11.289-7.248,3.43-18.024.9-21.752-2.473-4.448-4.031-4.415-15.614-1.423-22.518h0a1.805,1.805,0,0,0-.141-1.688,1.519,1.519,0,0,0-1.257-.748h-19.8v32.1a1.007,1.007,0,0,0,.45.9.755.755,0,0,0,.793.015c7.276-3.926,14.743-4.24,19.974-.839a12.855,12.855,0,0,1,5.788,11.59c-.285,7.416-2.343,13.014-5.953,16.189a10.96,10.96,0,0,1-8.8,2.627,39.531,39.531,0,0,1-11.1-3.257.69.69,0,0,0-.7.065,1.1,1.1,0,0,0-.455.93Zm22.913-86.052h0Z" transform="translate(-2125.217 -2650.573)" fill="#fff"/>
          </g>
          <path id="Path_47" data-name="Path 47" d="M2043.949,2156.468c-2.424-4.542-4.289-10.65-.48-15.222,6.88-8.258,20.641-10.093,24.081,2.752a16.229,16.229,0,0,1-1.25,12.46c-1.545,2.794.36,6.315,3.4,6.315h21.931v31.216a3.251,3.251,0,0,1-5.139,2.825c-14.712-10.894-22.384,1.956-22.4,7.739-.018,6.422,2.6,21.562,12.059,21.1a22.29,22.29,0,0,0,10.568-3.382,3.26,3.26,0,0,1,4.912,2.984v29.1h-22.7a3.624,3.624,0,0,0-2.836,5.587,24.267,24.267,0,0,1,3.171,12.509c.2,14.557-20.641,11.927-25.8,7.34-3.686-3.277-3.838-13.784-.968-20.281a3.654,3.654,0,0,0-3.171-5.155h-22.092V2239.1c0-4.143,2.265-18.813-5.222-16.083-.95.346-1.823.9-2.74,1.335-5.111,2.432-15.269,3.062-19.3-2.018-3.594-4.533-3.867-11.652-4.133-17.325-.379-8.1,13.673-17.638,25.1-9.64a2.8,2.8,0,0,0,4.358-2.469v-30.128h25.233C2043.577,2162.773,2045.451,2159.282,2043.949,2156.468Z" transform="translate(-1889.276 -1789.026)" fill="url(#linear-gradient-36)"/>
          <g id="Group_244" data-name="Group 244" transform="translate(252.504 278.913)">
            <path id="Path_48" data-name="Path 48" d="M2719.52,1906.7c-3.239,2.093-7.425,4.333-11.068,4.8-7.173.917-13.925-8.717-12.659-20.185,1.076-9.749,12.822-18.5,23.578-10.2,2.32,1.79,5.538-.132,5.538-3.225V1848.89h24.586c2.781,0,4.3,3.456,2.609,5.857-7.074,10.059-8.671,25.839,9.094,25.1,15.891-.665,12.945-14.8,10.112-22.552a3.6,3.6,0,0,1,3.084-4.973h24.781v28.694c0,3.012-3.1,4.8-5.384,3.088-2.84-2.125-6.354-4.277-9.385-4.716-6.33-.918-14.769,4.588-14.769,13.762s2.532,17.891,13.081,16.974a29.644,29.644,0,0,0,11.463-3.385,3.466,3.466,0,0,1,4.994,3.339v31.964h-22.547c-3.2,0-5.4-3.563-4.122-6.75a32.584,32.584,0,0,0,2.224-8.187c.844-7.34-8.889-12.346-16.906-11.655-6.312.544-13.656,10.912-10.279,20.021,1.168,3.149-1.06,6.571-4.183,6.571h-18.45v-32.024C2724.908,1907.007,2721.9,1905.162,2719.52,1906.7Z" transform="translate(-2694.14 -1847.345)" fill="url(#linear-gradient-37)"/>
            <path id="Path_49" data-name="Path 49" d="M2793.913,1938.36h-22.547a5.9,5.9,0,0,1-4.92-2.755,6.687,6.687,0,0,1-.591-6.13,30.63,30.63,0,0,0,2.121-7.779,6.579,6.579,0,0,0-2-5.382c-2.914-3.1-8.382-4.975-13.291-4.551-2.51.216-5.419,2.461-7.41,5.718a14.074,14.074,0,0,0-1.591,12.213,6.626,6.626,0,0,1-.7,5.975,5.915,5.915,0,0,1-4.885,2.692h-18.451a1.524,1.524,0,0,1-1.5-1.545v-32.024a2.327,2.327,0,0,0-1.131-2.073,1.833,1.833,0,0,0-1.957.064c-4.52,2.92-8.45,4.61-11.681,5.023a10.54,10.54,0,0,1-8.833-3.495c-4.178-4.253-6.286-11.3-5.5-18.4a17.468,17.468,0,0,1,10.032-13.592c5.291-2.347,10.952-1.521,15.939,2.326a1.7,1.7,0,0,0,1.89.17,2.382,2.382,0,0,0,1.245-2.158v-28.993a1.524,1.524,0,0,1,1.5-1.545h24.586a4.7,4.7,0,0,1,4.247,2.719,5.476,5.476,0,0,1-.421,5.59c-4.4,6.259-5.9,13.644-3.653,17.959,1.75,3.356,5.6,4.936,11.469,4.688,4.6-.192,7.767-1.6,9.426-4.172,2.941-4.566.849-12.168-.659-16.293a5.475,5.475,0,0,1,.576-4.922,4.678,4.678,0,0,1,3.913-2.14h24.781a1.525,1.525,0,0,1,1.5,1.545v28.694a5.3,5.3,0,0,1-2.772,4.753,4.606,4.606,0,0,1-5-.416c-3.441-2.574-6.453-4.108-8.711-4.436a11.55,11.55,0,0,0-8.963,3.078,12.13,12.13,0,0,0-4.094,9.155c0,6.421,1.285,10.892,3.82,13.288,1.832,1.731,4.324,2.433,7.632,2.146a28.059,28.059,0,0,0,10.895-3.215,4.687,4.687,0,0,1,4.747.153,5.3,5.3,0,0,1,2.444,4.557v31.964A1.525,1.525,0,0,1,2793.913,1938.36Zm-39.807-29.748c5.34,0,10.815,2.13,14.032,5.555a9.706,9.706,0,0,1,2.822,7.893,33.774,33.774,0,0,1-2.328,8.6,3.524,3.524,0,0,0,.312,3.232,2.88,2.88,0,0,0,2.423,1.383h21.045v-30.419a2.217,2.217,0,0,0-1-1.915,1.756,1.756,0,0,0-1.8-.055,30.975,30.975,0,0,1-12.03,3.554c-4.13.36-7.467-.633-9.918-2.95-3.179-3.006-4.791-8.242-4.791-15.563a15.216,15.216,0,0,1,5.128-11.487,14.554,14.554,0,0,1,11.352-3.805c2.782.4,6.166,2.084,10.058,5a1.705,1.705,0,0,0,1.868.162,2.189,2.189,0,0,0,1.131-2v-27.149h-23.28a1.732,1.732,0,0,0-1.443.808,2.306,2.306,0,0,0-.234,2.076c2.089,5.713,3.846,13.662.352,19.088-2.222,3.45-6.195,5.318-11.808,5.553-8.85.373-12.629-3.23-14.238-6.314-3.255-6.241-.4-15.16,3.867-21.231a2.328,2.328,0,0,0,.179-2.372,1.76,1.76,0,0,0-1.572-1.034H2721.15v27.448a5.468,5.468,0,0,1-2.9,4.922,4.615,4.615,0,0,1-5.036-.461c-4.088-3.155-8.687-3.85-12.946-1.961a14.3,14.3,0,0,0-8.238,11.1c-.682,6.177,1.093,12.25,4.631,15.853a7.648,7.648,0,0,0,6.35,2.625c2.753-.352,6.368-1.934,10.454-4.574h0a4.753,4.753,0,0,1,5.008-.151,5.462,5.462,0,0,1,2.681,4.777v30.479H2738.1a2.9,2.9,0,0,0,2.411-1.355,3.46,3.46,0,0,0,.369-3.12,17.2,17.2,0,0,1,1.855-14.959c2.515-4.113,6.232-6.853,9.7-7.152C2752.989,1908.636,2753.547,1908.612,2754.106,1908.612Z" transform="translate(-2688.879 -1842.12)" fill="#fff"/>
          </g>
          <path id="Path_50" data-name="Path 50" d="M2370.132,1820.041a20.757,20.757,0,0,1-9.755,4.1c-8.439.918-11.815-9.175-12.237-17.891s6.751-16.974,13.081-16.056c2.981.432,6.243,2.492,8.86,4.551,2.114,1.663,5.065.028,5.065-2.809v-31.307h29.132a3.6,3.6,0,0,0,3.023-5.124c-2.286-5.4-4.853-13.609-1.272-17.151,5.564-5.505,20.6-5.505,23.128,2.753,1.418,4.624-.508,10.186-2.478,14.187-1.187,2.412.415,5.323,2.931,5.323h24.864v28.993c0,3.093-3.217,5.015-5.537,3.225-10.755-8.3-22.5.455-23.578,10.2-1.266,11.469,5.486,21.1,12.659,20.185,3.642-.466,7.829-2.706,11.068-4.8,2.379-1.537,5.388.309,5.388,3.317v32.024h-28.638c-3.277,0-5.469-3.716-4.048-6.927,1.693-3.826,8.63-8.522,8.213-12.147-.844-7.34-15.876-9.156-23.972-7.789-6.18,1.043-3.108,11.552.4,19.974,1.347,3.228-.8,6.889-4.058,6.889h-27.229v-30.876A3.193,3.193,0,0,0,2370.132,1820.041Z" transform="translate(-2171.201 -1480.16)" fill="url(#linear-gradient-38)"/>
          <path id="Path_51" data-name="Path 51" d="M2872.645,1031.657a26.546,26.546,0,0,0,2.355-7.5c2.433-16.018-15.8-13.857-23.092-5.6-3.711,4.2-2.471,9.158-.359,13.009,1.549,2.824-.267,6.4-3.291,6.4h-24.815v-25.84a3.582,3.582,0,0,1,5.241-3.408,22.234,22.234,0,0,0,10.87,2.957c9.705,0,12.028-14.221,12.344-18.809.286-4.161-6.67-20.778-23.063-10.478-2.37,1.489-5.338-.366-5.338-3.343v-29.99h25.469c2.124,0,3.308-2.614,2.058-4.481-5.912-8.837-.721-21.378,3.722-23.5,5.274-2.523,16.035-3.211,19.2,9.634,1.652,6.707.128,11.6-1.705,14.745a2.81,2.81,0,0,0,2.18,4.293h24.209V980.6c0,3.022-3.12,4.8-5.4,3.076-3.27-2.469-7.237-5.224-9.521-5.943-4.375-1.376-13.348,1.376-14.746,12.845s5.618,19.726,14.835,19.268a27.272,27.272,0,0,0,10.072-2.472c2.26-1.043,4.762.819,4.762,3.489v26.967h-22.573C2873.14,1037.828,2871.293,1034.467,2872.645,1031.657Z" transform="translate(-2541.092 -851.197)" fill="url(#linear-gradient-39)"/>
        </g>
      </g>
    </g>
    <g id="Group_248" data-name="Group 248" transform="translate(450.615 639.612)">
      <path id="Path_52" data-name="Path 52" d="M519.743,1506.745c-22.558-34.361-31.643-72.737-27.961-106.448a116.653,116.653,0,0,0-23.6-84.4q-2.935-3.767-5.626-7.861c-27.13-41.326-23.8-91.45,7.433-111.955s78.549-3.627,105.678,37.7a115.794,115.794,0,0,1,12.839,26.123c9.636,28.264,29.248,52.208,55.658,66.17,23.6,12.477,45.6,32.187,62.508,57.949,25.224,38.422,33.6,81.864,26.125,118.191a114.837,114.837,0,0,0-.887,41.763c3.785,22.984-3.559,45.064-21.1,56.576-18.917,12.419-44.4,9.064-64.854-6.32a122.541,122.541,0,0,0-38.594-19.185C574.6,1565.219,542.55,1541.487,519.743,1506.745Z" transform="translate(-444.204 -1187.363)" fill="url(#linear-gradient-40)"/>
      <path id="Path_53" data-name="Path 53" d="M641.276,1455.1c13.849,29.991,28.651,59.512,43.761,88.879,3.774,7.344,7.667,14.625,11.535,21.92l5.8,10.94,5.9,10.892c3.959,7.246,7.818,14.547,11.858,21.749l12.121,21.6c8.264,14.3,16.407,28.668,24.937,42.814,4.255,7.079,8.371,14.239,12.77,21.231l13.1,21.033c17.744,27.866,36.2,55.3,56,81.745l1.148-.842-14.065-20.351-3.526-5.078-3.4-5.166-6.778-10.345-6.8-10.33c-2.271-3.439-4.415-6.963-6.629-10.44-4.382-6.984-8.818-13.933-13.154-20.944q-25.745-42.242-50.154-85.282c-7.991-14.428-16.1-28.786-24-43.27l-5.948-10.846-5.857-10.9c-3.909-7.262-7.818-14.525-11.654-21.826q-11.694-21.806-23.061-43.788-11.475-21.925-22.629-44.018Z" transform="translate(-597.563 -1395.235)" fill="#fff" opacity="0.57"/>
    </g>
    <g id="Group_249" data-name="Group 249" transform="translate(537.266 532.487)">
      <path id="Path_54" data-name="Path 54" d="M1086.812,1086.557c-7.422-47.874-28.812-88.629-57.088-115.228a142.549,142.549,0,0,1-44.1-92.484q-.438-5.612-1.319-11.32c-8.927-57.576-49.223-98.819-90.005-92.119s-66.606,58.807-57.68,116.383a144.469,144.469,0,0,0,9.149,32.994c13.359,32.34,15.365,68.772,4.356,101.831-9.839,29.544-12.946,64.149-7.381,100.041,8.3,53.531,34.063,98.164,67.389,124.056a134.307,134.307,0,0,1,32.041,35.851c14.158,23.1,36.69,36.632,59.586,32.87,24.7-4.058,42.91-27.1,48.008-56.705a148.543,148.543,0,0,1,17-47.245C1086.048,1181.019,1094.317,1134.959,1086.812,1086.557Z" transform="translate(-834.856 -774.693)" fill="url(#linear-gradient-41)"/>
      <path id="Path_55" data-name="Path 55" d="M1204.76,1035.786c11.227,37.384,21.328,75.111,31.061,112.946,2.438,9.458,4.733,18.955,7.057,28.444l3.484,14.234,3.373,14.264c2.214,9.518,4.551,19.006,6.665,28.55l6.344,28.631c4,19.142,8.156,38.25,11.826,57.468,1.848,9.605,3.87,19.173,5.536,28.817l5.122,28.9c6.466,38.6,12.03,77.391,15.755,116.381l-1.566.17-3.823-29.071-.941-7.267-1.11-7.244-2.245-14.482-2.219-14.484c-.732-4.829-1.63-9.632-2.437-14.448-1.674-9.623-3.276-19.259-5.008-28.87-7.16-38.4-14.795-76.71-23.165-114.853-4.321-19.039-8.489-38.114-12.933-57.123l-3.3-14.265-3.408-14.238c-2.266-9.493-4.534-18.986-6.89-28.456q-6.842-28.471-14.082-56.836-7.11-28.4-14.606-56.7Z" transform="translate(-1121.54 -977.873)" fill="#fff" opacity="0.57"/>
    </g>
    <g id="Group_252" data-name="Group 252" transform="translate(550.445 655.824)">
      <rect id="Rectangle_322" data-name="Rectangle 322" width="70.242" height="70.242" rx="12.703" transform="translate(70.242 118.766) rotate(180)" fill="url(#linear-gradient-42)"/>
      <g id="Group_251" data-name="Group 251" transform="translate(10.306)">
        <path id="Path_56" data-name="Path 56" d="M2015.428,3158.475s3.391,5.345,4.244,20.311a2.438,2.438,0,0,1-2.422,2.582h-26.521a1.563,1.563,0,0,1-1.487-2.057c1.554-4.6,6.253-15.813,16.738-22.222Z" transform="translate(-1756.609 -2736.395)" fill="url(#linear-gradient-43)"/>
        <path id="Path_57" data-name="Path 57" d="M2069.361,3112.73l-1.5,12.577a2.368,2.368,0,0,1-2.066,2.079,20.961,20.961,0,0,1-5.608-.053,3.885,3.885,0,0,1-3.2-3.854v-12.144Z" transform="translate(-1809.39 -2700.792)" fill="url(#linear-gradient-44)"/>
        <path id="Path_58" data-name="Path 58" d="M1661.208,3157.088a37.04,37.04,0,0,1,4.968,18.721,4.686,4.686,0,0,1-4.713,4.583h-41.19a1.972,1.972,0,0,1-1.133-3.587c7.794-5.473,23.114-15.7,34.194-19.717Z" transform="translate(-1468.007 -2736.395)" fill="url(#linear-gradient-45)"/>
        <path id="Path_59" data-name="Path 59" d="M1787.7,3074.68l-3.2,15.534a3.2,3.2,0,0,1-3.789,2.52,11.577,11.577,0,0,1-3.621-1.515,3.675,3.675,0,0,1-1.642-3.752l3.309-18.82Z" transform="translate(-1590.258 -2667.572)" fill="url(#linear-gradient-46)"/>
        <path id="Path_60" data-name="Path 60" d="M1839.5,2122.151s11.125,9.808,13.218,21.608-5.932,203.592-5.932,203.592-11.125,1.851-16.859-1.624c0,0-6.8-124.471-11.971-153.233,0,0-27.113,128.936-34.625,152.233,0,0-10.718,1.3-14.174-.736,0,0,7.1-167.137,16.026-196.851Z" transform="translate(-1585.407 -1931.018)" fill="url(#linear-gradient-47)"/>
        <path id="Path_61" data-name="Path 61" d="M1986.38,2325.991a1.208,1.208,0,0,0,1.167-.9l4.607-17.669,9.811-6.295a1.207,1.207,0,1,0-1.3-2.033l-10.209,6.549a1.209,1.209,0,0,0-.517.712l-4.726,18.126a1.208,1.208,0,0,0,.863,1.473A1.191,1.191,0,0,0,1986.38,2325.991Z" transform="translate(-1753.506 -2068.562)" fill="url(#linear-gradient-48)"/>
        <path id="Path_62" data-name="Path 62" d="M1442.51,1606.047c46.832-3.888,59.072,5.8,59.072,5.8l-22.506,35.53s-46.016-.909-78.99-26.323a80.476,80.476,0,0,0,13.205-19.709A62.012,62.012,0,0,0,1442.51,1606.047Z" transform="translate(-1298.198 -1525.734)" fill="url(#linear-gradient-49)"/>
        <path id="Path_63" data-name="Path 63" d="M1255.017,1307.784a1.436,1.436,0,0,1,2.734-.549l5.976,12.752a13.284,13.284,0,0,1,1.06,7.9l-2.1,7.422a12.811,12.811,0,0,0,2.613,10.2c5.491,6.864,17.185,19.4,33.833,26.319a80.487,80.487,0,0,1-13.205,19.709,80.768,80.768,0,0,1-28.111-39.034,6.268,6.268,0,0,1-4.422-6.229Z" transform="translate(-1184.043 -1296.214)" fill="url(#linear-gradient-50)"/>
        <path id="Path_64" data-name="Path 64" d="M1368.542,1612.395c16.487-17.765,47.89-25.791,66.071-29.088a16.679,16.679,0,0,1,18.64,10.575c8.182,21.995,30.435,79.216,34.748,89.051,3.539,8.068,7.234,15.948,9.582,20.875a5.915,5.915,0,0,1-2.76,7.881c-15.3,7.373-42.822,15.715-53.981,18.969a3.828,3.828,0,0,1-4.9-3.684,11.963,11.963,0,0,0-1.705-6.155l-42.262-70.426c-26.341,29.207-49.409,31.878-67.13,25.485a133.289,133.289,0,0,0,5.865-27.678C1356.889,1643.715,1368.542,1612.395,1368.542,1612.395Z" transform="translate(-1239.646 -1511.482)" fill="url(#linear-gradient-51)"/>
        <path id="Path_65" data-name="Path 65" d="M1156.2,1832.621l4.725-6.3c15.3,10.5,28.081,12.994,38.547,11.2a133.293,133.293,0,0,1-5.865,27.678C1170.264,1856.779,1156.2,1832.621,1156.2,1832.621Z" transform="translate(-1108.411 -1700.806)" fill="url(#linear-gradient-52)"/>
        <path id="Path_66" data-name="Path 66" d="M991.861,1807.873l-26.617,1.038-24.506-13.687c3.518-2.205,23.41,2.3,23.41,2.3s20.8-3.145,26.423-3.153c4.675-.006,4.007,6.716,3.646,8.994-.073.465-.134.745-.134.745Z" transform="translate(-940.738 -1675.944)" fill="url(#linear-gradient-53)"/>
        <path id="Path_67" data-name="Path 67" d="M1629.5,1437.168l14.044,34.27s-16.136,11.169-29.118,10.106l-7.009-30.815Z" transform="translate(-1459.539 -1397.97)" fill="url(#linear-gradient-54)"/>
        <g id="Group_250" data-name="Group 250" transform="translate(132.754)">
          <path id="Path_68" data-name="Path 68" d="M1564.379,1324.778c-.321.456-10.16,36-10.16,36l20.413,5.186,14.329-32.3S1569.764,1317.15,1564.379,1324.778Z" transform="translate(-1550.897 -1308.943)" fill="url(#linear-gradient-55)"/>
          <path id="Path_69" data-name="Path 69" d="M1569.617,1290.076l-6.211,17.594a2.556,2.556,0,0,1-.324.63c-.843,1.2-4.045,5.106-7.844,1.585-3.446-3.194-6.639-6.058-9.588-6.578a2.6,2.6,0,0,0-2.965,1.87,112.585,112.585,0,0,0-3.433,17.147,2.6,2.6,0,0,0,2.114,2.8c3.987.757,12.44,2.119,19.5,1.621a2.606,2.606,0,0,0,2.2-1.513c1.945-4.25,7.9-17.144,10.12-20.48,2.08-3.132,7.179-3.044,9.318-2.854a2.56,2.56,0,0,0,1.92-.628c1.871-1.64,5.432-5.827.423-10.84a2.61,2.61,0,0,1,.06-3.757c2.151-2.023,4.451-5.61.868-10.059-3.643-4.522-8.451-3.8-11.4-2.727a2.608,2.608,0,0,1-3.138-1.159,2.063,2.063,0,0,0-2.127-.994,2.567,2.567,0,0,1-2.739-2.632c.052-2.9-.985-6.557-6.011-8.121-8.917-2.775-14.478,5.84-15.029,12.268s9.288,8.887,15.074,8.454c4.4-.33,7.665,4.031,8.978,6.139A2.583,2.583,0,0,1,1569.617,1290.076Z" transform="translate(-1539.24 -1260.451)" fill="url(#linear-gradient-56)"/>
          <path id="Path_70" data-name="Path 70" d="M1681.772,1447.724s1.44-11.16,6.083-11.707,9.161,3.269,4.545,9.532C1686.659,1453.341,1681.772,1447.724,1681.772,1447.724Z" transform="translate(-1650.157 -1397.034)" fill="url(#linear-gradient-57)"/>
        </g>
      </g>
    </g>
    <g id="Group_259" data-name="Group 259" transform="translate(455.12 869.345)">
      <g id="Group_253" data-name="Group 253" transform="translate(0 51.59)">
        <path id="Path_71" data-name="Path 71" d="M503.872,2916.485h-4.76a2.748,2.748,0,0,1-2.747-2.685l-2.015-88.309a2.748,2.748,0,0,1,2.747-2.81h8a2.748,2.748,0,0,1,2.748,2.786l-1.228,88.309A2.748,2.748,0,0,1,503.872,2916.485Z" transform="translate(-487.731 -2741.273)" fill="url(#linear-gradient-58)"/>
        <path id="Path_72" data-name="Path 72" d="M898.958,2928.239H894.2a2.7,2.7,0,0,1-2.747-2.589l-2.015-85.155a2.7,2.7,0,0,1,2.747-2.71h8a2.7,2.7,0,0,1,2.747,2.687l-1.228,85.155A2.7,2.7,0,0,1,898.958,2928.239Z" transform="translate(-795.183 -2753.027)" fill="url(#linear-gradient-59)"/>
        <path id="Rectangle_323" data-name="Rectangle 323" d="M0,0H90.471A12.927,12.927,0,0,1,103.4,12.927V22.6a0,0,0,0,1,0,0H0a0,0,0,0,1,0,0V0A0,0,0,0,1,0,0Z" transform="translate(5.291 81.433)" fill="url(#linear-gradient-60)"/>
        <path id="Path_73" data-name="Path 73" d="M490.691,2559.7h-17.7a3.364,3.364,0,0,1-3.359-3.185l-5.114-96a4.605,4.605,0,0,1,4.842-4.844l.415.022a17.49,17.49,0,0,1,16.546,16.593Z" transform="translate(-464.513 -2455.667)" fill="url(#linear-gradient-61)"/>
      </g>
      <g id="Group_256" data-name="Group 256" transform="translate(27.223 0.089)">
        <g id="Group_254" data-name="Group 254" transform="translate(1.436 111.228)">
          <path id="Path_74" data-name="Path 74" d="M800.22,2883.759c14.393,19.838,10.255,41.253-18.611,55.661-2.032-1.848-2.6-3.578-.561-7.486,23-16.562,19.482-31.592,5.34-41.135Z" transform="translate(-738.503 -2848.53)" fill="url(#linear-gradient-62)"/>
          <path id="Path_75" data-name="Path 75" d="M648.349,2924.461c11.525,20.559,9,36.6-24.125,47.229-1.814-4.69-1.061-7.291,1.752-8.217,25.076-12.6,18.681-22.5,6.232-33.182Z" transform="translate(-616.691 -2880.204)" fill="url(#linear-gradient-63)"/>
          <path id="Path_76" data-name="Path 76" d="M601.256,3101.3c-.945,3.968-.507,6.023,2.5,6.845,1.815,6.5.814,10.1-2.293,11.529-3.867-5.5-6.8-11.394-7.746-18.142C596.59,3100.466,600.57,3099.541,601.256,3101.3Z" transform="translate(-593.719 -3017.05)" fill="url(#linear-gradient-64)"/>
          <path id="Path_77" data-name="Path 77" d="M759.241,3097.522c-.939,3.945-.5,5.988,2.487,6.8,1.8,6.462.809,10.04-2.279,11.46-3.844-5.463-6.755-11.326-7.7-18.034C754.6,3096.7,758.56,3095.777,759.241,3097.522Z" transform="translate(-716.696 -3014.118)" fill="url(#linear-gradient-65)"/>
          <path id="Path_78" data-name="Path 78" d="M594.236,2729.36c-1.964,13.407,4.4,33.306,14.956,47.251,7.489.828,15.616.116,21.9-3.834l-7.948-18.02,3.747-1.117,15.573,15.964c7.018,1.03,11.707-2.53,17.192-6.122-6.106-13.46-19.993-19.746-23.575-38.547Z" transform="translate(-593.845 -2724.934)" fill="url(#linear-gradient-66)"/>
        </g>
        <path id="Path_79" data-name="Path 79" d="M635.409,2517.658c-13.626,4.332-30.044,4.772-48.166,2.839l2.926-36.953s-3.6-25.747,12.829-28.6c9.678-2.632,9.678-2.608,9.678-2.608s12.379-1.926,22.733,2.644,18.906,32.036,18.906,32.036l-12.379,4.955-3.151-10.225Z" transform="translate(-587.243 -2401.257)" fill="url(#linear-gradient-67)"/>
        <g id="Group_255" data-name="Group 255" transform="translate(10.697)">
          <path id="Path_80" data-name="Path 80" d="M826.764,2329.446s-1.33-3.752,2.059-4.42.156,9.293.156,9.293Z" transform="translate(-784.132 -2302.477)" fill-rule="evenodd" fill="url(#linear-gradient-68)"/>
          <path id="Path_81" data-name="Path 81" d="M700.8,2390.96l-1.339,14.7s7.76,4.534,14.436.57l-1.186-12.841Z" transform="translate(-685.265 -2353.811)" fill-rule="evenodd" fill="url(#linear-gradient-69)"/>
          <path id="Path_82" data-name="Path 82" d="M679.666,2250.175s3.4-5.823-.931-8.886c0,0,2.324-5.125-2.071-8.831,0,0-7-16.382-21.692-4.89,0,0-12.65-3.762-16.72,11.97,0,0-4.206,2.361-2.28,8.239,0,0-.472,21.8,18.623,14.453Z" transform="translate(-635.467 -2223.479)" fill-rule="evenodd" fill="url(#linear-gradient-70)"/>
          <path id="Path_83" data-name="Path 83" d="M707.933,2286.479s16.187,24.39-.537,31.862c-15.784,7.051-22.435-9.145-22.435-9.145s-6.941-7.191-4.609-12.727S703.987,2283.448,707.933,2286.479Z" transform="translate(-670.023 -2271.962)" fill-rule="evenodd" fill="url(#linear-gradient-71)"/>
          <path id="Path_84" data-name="Path 84" d="M674.859,2289.142s15.843-5.015,14.488-14.372a3.5,3.5,0,0,0,3.586-2.958s7.775,6.994,9.823,2.1c0,0-1.361-12.11-10.86-8.185s-18.174,7.916-20.717,10.709S666.527,2285.994,674.859,2289.142Z" transform="translate(-661.5 -2255.749)" fill-rule="evenodd" fill="url(#linear-gradient-72)"/>
          <path id="Path_85" data-name="Path 85" d="M685.51,2371.435,682.7,2363.7s-5.438-2.5-4.722,1.71S683.577,2371.942,685.51,2371.435Z" transform="translate(-668.495 -2332.023)" fill-rule="evenodd" fill="url(#linear-gradient-73)"/>
        </g>
      </g>
      <g id="Group_257" data-name="Group 257" transform="translate(54.211 84.294)">
        <path id="Path_86" data-name="Path 86" d="M1539.071,2751.559h8.215a4.569,4.569,0,0,0,4.741-4.25l3.478-139.756a4.547,4.547,0,0,0-4.741-4.448h-13.813a4.552,4.552,0,0,0-4.742,4.409l2.12,139.756A4.565,4.565,0,0,0,1539.071,2751.559Z" transform="translate(-1349.594 -2603.106)" fill="url(#linear-gradient-74)"/>
        <path id="Path_87" data-name="Path 87" d="M735.914,2752.518H745.1a4.094,4.094,0,0,0,4.248-3.808l3.5-140.66a4.074,4.074,0,0,0-4.248-3.985H733.781a4.079,4.079,0,0,0-4.249,3.951l2.133,140.659A4.091,4.091,0,0,0,735.914,2752.518Z" transform="translate(-724.959 -2603.852)" fill="url(#linear-gradient-75)"/>
        <rect id="Rectangle_324" data-name="Rectangle 324" width="210.014" height="25.375" rx="12.688" transform="translate(210.014 25.375) rotate(180)" fill="url(#linear-gradient-76)"/>
      </g>
      <path id="Path_88" data-name="Path 88" d="M766.783,2427.257l-.657-13.074,21.065-2.886s6.765-29.319,13.943-32.137,6.181-.549,5.935.064-4.449,2.221-4.449,2.221,4.738-.988,4.371.417-5.216,3.248-5.216,3.248,5.752-.81,4.57.585-4.234,1.685-4.234,1.685,3.859-.945,3.386.556-3.944,2.69-3.944,2.69.179,4.031-.6,5.986-3.758,23.628-7.231,26.374S766.783,2427.257,766.783,2427.257Z" transform="translate(-699.225 -2343.466)" fill="url(#linear-gradient-77)"/>
      <path id="Path_89" data-name="Path 89" d="M638.714,2520.823c-1.135-5.77-1.884-11.173-.932-14.957-10.223-2.075-20.09-4.248-25.848-7.556-10.91-8.387-11.477,4.888-11.5,19.3A137.16,137.16,0,0,0,638.714,2520.823Z" transform="translate(-570.285 -2435.23)" fill="url(#linear-gradient-78)"/>
      <g id="Group_258" data-name="Group 258" transform="translate(109.1 0)">
        <rect id="Rectangle_325" data-name="Rectangle 325" width="41.896" height="41.896" rx="11.293" transform="translate(41.896 83.792) rotate(180)" fill="url(#linear-gradient-79)"/>
        <rect id="Rectangle_326" data-name="Rectangle 326" width="41.896" height="41.896" rx="10.356" transform="translate(83.491 83.792) rotate(180)" fill="url(#linear-gradient-80)"/>
        <rect id="Rectangle_327" data-name="Rectangle 327" width="41.896" height="41.896" rx="9.869" transform="translate(125.387 83.792) rotate(180)" fill="url(#linear-gradient-81)"/>
        <rect id="Rectangle_328" data-name="Rectangle 328" width="41.896" height="41.896" rx="9.869" transform="translate(126.552 41.896) rotate(180)" fill="url(#linear-gradient-82)"/>
        <rect id="Rectangle_329" data-name="Rectangle 329" width="41.896" height="41.896" rx="9.266" transform="translate(85.626 42.549) rotate(180)" fill="url(#linear-gradient-83)"/>
        <rect id="Rectangle_330" data-name="Rectangle 330" width="41.896" height="41.896" rx="12.703" transform="translate(43.73 41.896) rotate(180)" fill="url(#linear-gradient-84)"/>
      </g>
    </g>
  </g>
</svg>
